<svg width="137" height="137" viewBox="0 0 137 137" fill="none" xmlns="http://www.w3.org/2000/svg">
<path d="M117 68C117 94.5097 95.5097 116 69 116C42.4903 116 21 94.5097 21 68C21 41.4903 42.4903 20 69 20C95.5097 20 117 41.4903 117 68Z" fill="white"/>
<path d="M116 68C116 93.9574 94.9574 115 69 115C43.0426 115 22 93.9574 22 68C22 42.0426 43.0426 21 69 21C94.9574 21 116 42.0426 116 68Z" stroke="black" stroke-opacity="0.3" stroke-width="2"/>
<circle cx="69" cy="68" r="35" fill="url(#paint0_radial_353_2)" stroke="black" stroke-width="2"/>
<circle cx="69" cy="68" r="23" fill="white" stroke="black" stroke-width="2"/>
<path fill-rule="evenodd" clip-rule="evenodd" d="M123.928 38.4479L38.368 124.008C31.3386 131.037 19.9416 131.037 12.9122 124.008C5.88273 116.978 5.88273 105.581 12.9122 98.552L98.4721 12.9921C105.502 5.96264 116.899 5.96265 123.928 12.9921C130.957 20.0215 130.957 31.4185 123.928 38.4479ZM118.271 18.6489C114.366 14.7437 108.034 14.7437 104.129 18.6489L18.569 104.209C14.6638 108.114 14.6638 114.446 18.569 118.351C22.4743 122.256 28.8059 122.256 32.7112 118.351L118.271 32.7911C122.176 28.8858 122.176 22.5542 118.271 18.6489Z" fill="white"/>
<path d="M123.221 37.7408L37.6609 123.301C31.022 129.94 20.2582 129.94 13.6193 123.301C6.98037 116.662 6.98037 105.898 13.6193 99.2591L99.1792 13.6992C105.818 7.06027 116.582 7.06028 123.221 13.6992C129.86 20.3381 129.86 31.1019 123.221 37.7408ZM118.978 17.9418C114.682 13.6461 107.718 13.6461 103.422 17.9418L17.8619 103.502C13.5662 107.798 13.5662 114.762 17.8619 119.058C22.1577 123.354 29.1225 123.354 33.4183 119.058L118.978 33.4982C123.274 29.2024 123.274 22.2376 118.978 17.9418Z" stroke="black" stroke-opacity="0.3" stroke-width="2"/>
<path d="M33.4183 119.058L118.978 33.4982C123.274 29.2024 123.274 22.2376 118.978 17.9418C114.682 13.6461 107.718 13.6461 103.422 17.9418L17.8619 103.502C13.5662 107.798 13.5662 114.762 17.8619 119.058C22.1577 123.354 29.1225 123.354 33.4183 119.058Z" fill="url(#paint1_linear_353_2)" stroke="black" stroke-width="2"/>
<defs>
<radialGradient id="paint0_radial_353_2" cx="0" cy="0" r="1" gradientUnits="userSpaceOnUse" gradientTransform="translate(58.4578 37.1875) rotate(78.2826) scale(73.2451)">
<stop stop-color="#D633FF"/>
<stop offset="0.156027" stop-color="#761AFF"/>
<stop offset="0.300255" stop-color="#499DFF"/>
<stop offset="0.511887" stop-color="#01FF76"/>
<stop offset="0.724904" stop-color="#EFFF38"/>
<stop offset="0.850113" stop-color="#FFB802"/>
<stop offset="0.972756" stop-color="#FF014D"/>
</radialGradient>
<linearGradient id="paint1_linear_353_2" x1="118.271" y1="18.6489" x2="18.569" y2="118.351" gradientUnits="userSpaceOnUse">
<stop offset="0.0314652" stop-color="#D633FF"/>
<stop offset="0.211718" stop-color="#761AFF"/>
<stop offset="0.3734" stop-color="#39ACFF"/>
<stop offset="0.564577" stop-color="#01FF76"/>
<stop offset="0.761217" stop-color="#FAFF02"/>
<stop offset="0.961134" stop-color="#FF5959"/>
</linearGradient>
</defs>
</svg>