<svg width="80" height="100" viewBox="0 0 80 100" fill="none" xmlns="http://www.w3.org/2000/svg">
<mask id="path-1-inside-1_366_26" fill="white">
<path fill-rule="evenodd" clip-rule="evenodd" d="M64.3896 34.4295C63.1733 33.9768 62.4429 32.6212 62.8419 31.3863C63.5938 29.0594 64 26.5771 64 24C64 10.7452 53.2548 0 40 0C26.7452 0 16 10.7452 16 24C16 26.5771 16.4062 29.0594 17.1581 31.3863C17.5571 32.6213 16.8267 33.9768 15.6104 34.4296C13.0012 35.4007 10.9191 37.1746 9.81812 40.0624C4.78687 53.2593 1.38856 69.7873 0.341878 88.0056C-0.0382572 94.6221 5.3726 100 12 100H68C74.6274 100 80.0383 94.6221 79.6582 88.0056C78.6115 69.7873 75.2132 53.2593 70.1819 40.0624C69.081 37.1746 66.9989 35.4007 64.3896 34.4295Z"/>
</mask>
<path fill-rule="evenodd" clip-rule="evenodd" d="M64.3896 34.4295C63.1733 33.9768 62.4429 32.6212 62.8419 31.3863C63.5938 29.0594 64 26.5771 64 24C64 10.7452 53.2548 0 40 0C26.7452 0 16 10.7452 16 24C16 26.5771 16.4062 29.0594 17.1581 31.3863C17.5571 32.6213 16.8267 33.9768 15.6104 34.4296C13.0012 35.4007 10.9191 37.1746 9.81812 40.0624C4.78687 53.2593 1.38856 69.7873 0.341878 88.0056C-0.0382572 94.6221 5.3726 100 12 100H68C74.6274 100 80.0383 94.6221 79.6582 88.0056C78.6115 69.7873 75.2132 53.2593 70.1819 40.0624C69.081 37.1746 66.9989 35.4007 64.3896 34.4295Z" fill="url(#paint0_radial_366_26)"/>
<path d="M9.81812 40.0624L4.21174 37.925L9.81812 40.0624ZM0.341878 88.0056L-5.64824 87.6614L0.341878 88.0056ZM79.6582 88.0056L85.6483 87.6614L85.6483 87.6614L79.6582 88.0056ZM70.1819 40.0624L64.5755 42.1998L64.5755 42.1998L70.1819 40.0624ZM17.1581 31.3863L11.4487 33.2311L17.1581 31.3863ZM15.6104 34.4296L17.7033 40.0527L15.6104 34.4296ZM62.8419 31.3863L68.5513 33.2311L62.8419 31.3863ZM58 24C58 25.9432 57.6942 27.8033 57.1326 29.5414L68.5513 33.2311C69.4934 30.3155 70 27.211 70 24H58ZM40 6C49.9411 6 58 14.0589 58 24H70C70 7.43146 56.5685 -6 40 -6V6ZM22 24C22 14.0589 30.0589 6 40 6V-6C23.4315 -6 10 7.43146 10 24H22ZM22.8674 29.5414C22.3058 27.8033 22 25.9432 22 24H10C10 27.211 10.5066 30.3155 11.4487 33.2311L22.8674 29.5414ZM13.5175 28.8064C9.51568 30.2959 6.0086 33.2119 4.21174 37.925L15.4245 42.1998C15.8295 41.1374 16.4866 40.5055 17.7033 40.0527L13.5175 28.8064ZM4.21174 37.925C-1.07634 51.7955 -4.57294 68.945 -5.64824 87.6614L6.332 88.3497C7.35006 70.6296 10.6501 54.723 15.4245 42.1998L4.21174 37.925ZM-5.64824 87.6614C-6.23937 97.9505 2.15755 106 12 106V94C8.58766 94 6.16286 91.2937 6.332 88.3497L-5.64824 87.6614ZM12 106H68V94H12V106ZM68 106C77.8425 106 86.2394 97.9505 85.6483 87.6614L73.668 88.3497C73.8372 91.2937 71.4124 94 68 94V106ZM85.6483 87.6614C84.573 68.945 81.0764 51.7955 75.7883 37.925L64.5755 42.1998C69.35 54.723 72.65 70.6296 73.668 88.3497L85.6483 87.6614ZM75.7883 37.925C73.9914 33.2118 70.4843 30.2958 66.4825 28.8064L62.2967 40.0527C63.5134 40.5055 64.1705 41.1374 64.5755 42.1998L75.7883 37.925ZM11.4487 33.2311C10.7701 31.131 12.0067 29.3687 13.5175 28.8064L17.7033 40.0527C21.6468 38.585 24.3441 34.1115 22.8674 29.5414L11.4487 33.2311ZM57.1326 29.5414C55.6559 34.1115 58.3532 38.585 62.2967 40.0527L66.4825 28.8064C67.9933 29.3687 69.2299 31.1309 68.5513 33.2311L57.1326 29.5414Z" fill="black" fill-opacity="0.3" mask="url(#path-1-inside-1_366_26)"/>
<rect x="18" y="61" width="12" height="24" rx="6" fill="white" stroke="#B38101" stroke-width="2"/>
<rect x="34" y="49" width="12" height="36" rx="6" fill="white" stroke="#B38101" stroke-width="2"/>
<rect x="50" y="61" width="12" height="24" rx="6" fill="white" stroke="#B38101" stroke-width="2"/>
<defs>
<radialGradient id="paint0_radial_366_26" cx="0" cy="0" r="1" gradientUnits="userSpaceOnUse" gradientTransform="translate(59 19) rotate(126.334) scale(96.2042 76.3419)">
<stop stop-color="#FFE297"/>
<stop offset="0.382876" stop-color="#FFB802"/>
<stop offset="0.917573" stop-color="#735300"/>
</radialGradient>
</defs>
</svg>