<svg width="80" height="100" viewBox="0 0 80 100" fill="none" xmlns="http://www.w3.org/2000/svg">
<path d="M33.9511 63C33.9511 59.6863 36.6593 57 40 57C43.3407 57 46.0488 59.6863 46.0488 63V79C46.0488 82.3137 43.3407 85 40 85C36.6593 85 33.9511 82.3137 33.9511 79V63Z" fill="#FFB802"/>
<path d="M17.8209 73C17.8209 69.6863 20.5291 67 23.8697 67C27.2104 67 29.9186 69.6863 29.9186 73V79C29.9186 82.3137 27.2104 85 23.8697 85C20.5291 85 17.8209 82.3137 17.8209 79V73Z" fill="#FFB802"/>
<path d="M56.1302 67C52.7895 67 50.0814 69.6863 50.0814 73V79C50.0814 82.3137 52.7895 85 56.1302 85C59.4709 85 62.1791 82.3137 62.1791 79V73C62.1791 69.6863 59.4709 67 56.1302 67Z" fill="#FFB802"/>
<path fill-rule="evenodd" clip-rule="evenodd" d="M68.7901 37.2722C66.2573 34.2975 63.6878 30.2756 64.0758 26.401C64.1549 25.6113 64.1954 24.8104 64.1954 24C64.1954 10.7452 53.3627 0 40 0C26.6373 0 15.8046 10.7452 15.8046 24C15.8046 24.8104 15.8451 25.6113 15.9242 26.4011C16.3122 30.2756 13.7427 34.2976 11.2099 37.2722C10.5416 38.0572 9.98775 38.9818 9.57242 40.0624C4.50021 53.2593 1.07424 69.7873 0.0190334 88.0056C-0.364196 94.6221 5.09071 100 11.7721 100H68.2279C74.9093 100 80.3642 94.6221 79.981 88.0056C78.9258 69.7873 75.4998 53.2593 70.4276 40.0624C70.0123 38.9818 69.4584 38.0571 68.7901 37.2722ZM40 36C46.6813 36 52.0977 30.6274 52.0977 24C52.0977 17.3726 46.6813 12 40 12C33.3186 12 27.9023 17.3726 27.9023 24C27.9023 30.6274 33.3186 36 40 36ZM40 48.6772C43.5674 48.6772 47.0202 48.093 50.2737 47.0121C53.8444 45.8258 57.2235 45.3089 59.3923 45.5027C59.5012 45.5125 59.5932 45.5839 59.6307 45.6858C63.2991 55.6572 66.0445 67.9215 67.3616 81.6411C67.692 85.0831 64.9179 88 61.4321 88H18.5679C15.0821 88 12.308 85.0831 12.6384 81.6411C13.9555 67.9215 16.7009 55.6572 20.3693 45.6858C20.4068 45.5839 20.4988 45.5125 20.6077 45.5027C22.7765 45.3089 26.1557 45.8258 29.7263 47.0121C32.9798 48.093 36.4326 48.6772 40 48.6772Z" fill="#FFB802"/>
</svg>