<svg width="80" height="100" viewBox="0 0 80 100" fill="none" xmlns="http://www.w3.org/2000/svg">
<mask id="path-1-inside-1_366_25" fill="white">
<path fill-rule="evenodd" clip-rule="evenodd" d="M32 0C25.3726 0 20 5.37258 20 12V22C20 26.4183 16.4183 30 12 30V30C5.37258 30 0 35.3726 0 42V58C0 64.6274 5.37258 70 12 70V70C16.4183 70 20 73.5817 20 78V88C20 94.6274 25.3726 100 32 100H48C54.6274 100 60 94.6274 60 88V78C60 73.5817 63.5817 70 68 70V70C74.6274 70 80 64.6274 80 58V42C80 35.3726 74.6274 30 68 30V30C63.5817 30 60 26.4183 60 22V12C60 5.37258 54.6274 0 48 0H32Z"/>
</mask>
<path fill-rule="evenodd" clip-rule="evenodd" d="M32 0C25.3726 0 20 5.37258 20 12V22C20 26.4183 16.4183 30 12 30V30C5.37258 30 0 35.3726 0 42V58C0 64.6274 5.37258 70 12 70V70C16.4183 70 20 73.5817 20 78V88C20 94.6274 25.3726 100 32 100H48C54.6274 100 60 94.6274 60 88V78C60 73.5817 63.5817 70 68 70V70C74.6274 70 80 64.6274 80 58V42C80 35.3726 74.6274 30 68 30V30C63.5817 30 60 26.4183 60 22V12C60 5.37258 54.6274 0 48 0H32Z" fill="url(#paint0_radial_366_25)"/>
<path d="M26 12C26 8.68629 28.6863 6 32 6V-6C22.0589 -6 14 2.05888 14 12H26ZM26 22V12H14V22H26ZM6 42C6 38.6863 8.68629 36 12 36V24C2.05887 24 -6 32.0589 -6 42H6ZM6 58V42H-6V58H6ZM12 64C8.68629 64 6 61.3137 6 58H-6C-6 67.9411 2.05887 76 12 76V64ZM26 88V78H14V88H26ZM32 94C28.6863 94 26 91.3137 26 88H14C14 97.9411 22.0589 106 32 106V94ZM48 94H32V106H48V94ZM54 88C54 91.3137 51.3137 94 48 94V106C57.9411 106 66 97.9411 66 88H54ZM54 78V88H66V78H54ZM74 58C74 61.3137 71.3137 64 68 64V76C77.9411 76 86 67.9411 86 58H74ZM74 42V58H86V42H74ZM68 36C71.3137 36 74 38.6863 74 42H86C86 32.0589 77.9411 24 68 24V36ZM54 12V22H66V12H54ZM48 6C51.3137 6 54 8.68629 54 12H66C66 2.05887 57.9411 -6 48 -6V6ZM32 6H48V-6H32V6ZM68 24C66.8954 24 66 23.1046 66 22H54C54 29.732 60.268 36 68 36V24ZM66 78C66 76.8954 66.8954 76 68 76V64C60.268 64 54 70.268 54 78H66ZM12 76C13.1046 76 14 76.8954 14 78H26C26 70.268 19.732 64 12 64V76ZM14 22C14 23.1046 13.1046 24 12 24V36C19.732 36 26 29.732 26 22H14Z" fill="black" fill-opacity="0.3" mask="url(#path-1-inside-1_366_25)"/>
<rect x="34" y="30" width="12" height="40" rx="6" fill="white" stroke="#01B353" stroke-width="2"/>
<rect x="50" y="41" width="12" height="18" rx="6" fill="white" stroke="#01B353" stroke-width="2"/>
<rect x="18" y="41" width="12" height="18" rx="6" fill="white" stroke="#01B353" stroke-width="2"/>
<defs>
<radialGradient id="paint0_radial_366_25" cx="0" cy="0" r="1" gradientUnits="userSpaceOnUse" gradientTransform="translate(57.5 15) rotate(121.386) scale(93.1263 74.501)">
<stop stop-color="#9EFFCA"/>
<stop offset="0.346174" stop-color="#01FF76"/>
<stop offset="0.903609" stop-color="#007335"/>
</radialGradient>
</defs>
</svg>