<svg width="80" height="100" viewBox="0 0 80 100" fill="none" xmlns="http://www.w3.org/2000/svg">
<path d="M40 34C36.6863 34 34 36.6863 34 40V61C34 64.3137 36.6863 67 40 67C43.3137 67 46 64.3137 46 61V40C46 36.6863 43.3137 34 40 34Z" fill="#01FF76"/>
<path d="M56 44C52.6863 44 50 46.6863 50 50C50 53.3137 52.6863 56 56 56C59.3137 56 62 53.3137 62 50C62 46.6863 59.3137 44 56 44Z" fill="#01FF76"/>
<path d="M18 50C18 46.6863 20.6863 44 24 44C27.3137 44 30 46.6863 30 50C30 53.3137 27.3137 56 24 56C20.6863 56 18 53.3137 18 50Z" fill="#01FF76"/>
<path fill-rule="evenodd" clip-rule="evenodd" d="M32 0C25.3726 0 20 5.37258 20 12V29C20 29.5523 19.5523 30 19 30H12C5.37258 30 0 35.3726 0 42V58C0 64.6274 5.37258 70 12 70H19C19.5523 70 20 70.4477 20 71V88C20 94.6274 25.3726 100 32 100H48C54.6274 100 60 94.6274 60 88V71C60 70.4477 60.4477 70 61 70H68C74.6274 70 80 64.6274 80 58V42C80 35.3726 74.6274 30 68 30H61C60.4477 30 60 29.5523 60 29V12C60 5.37258 54.6274 0 48 0H32ZM32 29V16C32 13.7909 33.7909 12 36 12H44C46.2091 12 48 13.7909 48 16V29C48 36.1797 53.8203 42 61 42H64C66.2091 42 68 43.7909 68 46V54C68 56.2091 66.2091 58 64 58H61C53.8203 58 48 63.8203 48 71V84C48 86.2091 46.2091 88 44 88H36C33.7909 88 32 86.2091 32 84V71C32 63.8203 26.1797 58 19 58H16C13.7909 58 12 56.2091 12 54V46C12 43.7909 13.7909 42 16 42H19C26.1797 42 32 36.1797 32 29Z" fill="#01FF76"/>
</svg>