<svg width="80" height="100" viewBox="0 0 80 100" fill="none" xmlns="http://www.w3.org/2000/svg">
<mask id="path-1-inside-1_366_23" fill="white">
<path fill-rule="evenodd" clip-rule="evenodd" d="M30 10C30 4.47715 34.4772 0 40 0C45.5228 0 50 4.47715 50 10V10C50 10.7417 50.5032 11.386 51.2153 11.5936C54.0242 12.4125 56.7053 13.5311 59.2218 14.9126C59.8737 15.2706 60.6873 15.1706 61.2133 14.6446V14.6446C65.1185 10.7394 71.4502 10.7394 75.3554 14.6446C79.2606 18.5499 79.2606 24.8815 75.3554 28.7868V28.7868C74.8295 29.3127 74.7295 30.1263 75.0874 30.7783C78.219 36.4826 80 43.0333 80 50C80 56.9667 78.219 63.5174 75.0874 69.2217C74.7294 69.8737 74.8295 70.6873 75.3554 71.2133V71.2133C79.2606 75.1185 79.2606 81.4502 75.3554 85.3554C71.4502 89.2606 65.1185 89.2606 61.2133 85.3554V85.3554C60.6873 84.8295 59.8737 84.7294 59.2217 85.0874C56.7053 86.4689 54.0242 87.5875 51.2153 88.4064C50.5032 88.614 50 89.2583 50 90V90C50 95.5229 45.5228 100 40 100C34.4772 100 30 95.5228 30 90V90C30 89.2583 29.4968 88.614 28.7847 88.4064C25.9758 87.5875 23.2946 86.4688 20.7781 85.0873C20.1262 84.7294 19.3127 84.8294 18.7868 85.3553V85.3553C14.8816 89.2605 8.54993 89.2605 4.64469 85.3553C0.739449 81.45 0.739449 75.1184 4.64469 71.2131V71.2131C5.17057 70.6873 5.27057 69.8737 4.91267 69.2218C1.78105 63.5175 0 56.9668 0 50C0 43.0332 1.78106 36.4825 4.91268 30.7782C5.2706 30.1262 5.17059 29.3127 4.64469 28.7868V28.7868C0.739449 24.8815 0.739448 18.5499 4.64469 14.6446C8.54993 10.7394 14.8816 10.7394 18.7868 14.6446V14.6446C19.3127 15.1705 20.1263 15.2706 20.7783 14.9126C23.2947 13.5311 25.9758 12.4125 28.7847 11.5936C29.4968 11.386 30 10.7417 30 10V10Z"/>
</mask>
<path fill-rule="evenodd" clip-rule="evenodd" d="M30 10C30 4.47715 34.4772 0 40 0C45.5228 0 50 4.47715 50 10V10C50 10.7417 50.5032 11.386 51.2153 11.5936C54.0242 12.4125 56.7053 13.5311 59.2218 14.9126C59.8737 15.2706 60.6873 15.1706 61.2133 14.6446V14.6446C65.1185 10.7394 71.4502 10.7394 75.3554 14.6446C79.2606 18.5499 79.2606 24.8815 75.3554 28.7868V28.7868C74.8295 29.3127 74.7295 30.1263 75.0874 30.7783C78.219 36.4826 80 43.0333 80 50C80 56.9667 78.219 63.5174 75.0874 69.2217C74.7294 69.8737 74.8295 70.6873 75.3554 71.2133V71.2133C79.2606 75.1185 79.2606 81.4502 75.3554 85.3554C71.4502 89.2606 65.1185 89.2606 61.2133 85.3554V85.3554C60.6873 84.8295 59.8737 84.7294 59.2217 85.0874C56.7053 86.4689 54.0242 87.5875 51.2153 88.4064C50.5032 88.614 50 89.2583 50 90V90C50 95.5229 45.5228 100 40 100C34.4772 100 30 95.5228 30 90V90C30 89.2583 29.4968 88.614 28.7847 88.4064C25.9758 87.5875 23.2946 86.4688 20.7781 85.0873C20.1262 84.7294 19.3127 84.8294 18.7868 85.3553V85.3553C14.8816 89.2605 8.54993 89.2605 4.64469 85.3553C0.739449 81.45 0.739449 75.1184 4.64469 71.2131V71.2131C5.17057 70.6873 5.27057 69.8737 4.91267 69.2218C1.78105 63.5175 0 56.9668 0 50C0 43.0332 1.78106 36.4825 4.91268 30.7782C5.2706 30.1262 5.17059 29.3127 4.64469 28.7868V28.7868C0.739449 24.8815 0.739448 18.5499 4.64469 14.6446C8.54993 10.7394 14.8816 10.7394 18.7868 14.6446V14.6446C19.3127 15.1705 20.1263 15.2706 20.7783 14.9126C23.2947 13.5311 25.9758 12.4125 28.7847 11.5936C29.4968 11.386 30 10.7417 30 10V10Z" fill="url(#paint0_radial_366_23)"/>
<path d="M4.64469 14.6446L0.40205 10.402L0.402049 10.402L4.64469 14.6446ZM4.64469 71.2131L0.402055 66.9705L0.402051 66.9705L4.64469 71.2131ZM4.91267 69.2218L10.1722 66.3344L4.91267 69.2218ZM20.7781 85.0873L17.8907 90.3468L20.7781 85.0873ZM18.7868 85.3553L23.0295 89.5979L23.0295 89.5979L18.7868 85.3553ZM75.0874 69.2217L80.3469 72.1091L75.0874 69.2217ZM4.91268 30.7782L-0.346846 27.8907L4.91268 30.7782ZM4.64469 28.7868L0.402051 33.0294L0.402052 33.0294L4.64469 28.7868ZM51.2153 11.5936L52.8945 5.83339L51.2153 11.5936ZM59.2217 85.0874L56.3343 79.8278L59.2217 85.0874ZM51.2153 88.4064L52.8945 94.1666L51.2153 88.4064ZM59.2218 14.9126L62.1092 9.65311L59.2218 14.9126ZM61.2133 14.6446L65.4559 18.8873L65.4559 18.8873L61.2133 14.6446ZM20.7783 14.9126L17.8908 9.6531L20.7783 14.9126ZM28.7847 88.4064L27.1055 94.1666L28.7847 88.4064ZM28.7847 11.5936L27.1055 5.83339L28.7847 11.5936ZM75.3554 28.7868L71.1128 24.5441L71.1128 24.5441L75.3554 28.7868ZM75.0874 30.7783L69.8279 33.6657L75.0874 30.7783ZM40 -6C31.1634 -6 24 1.16344 24 10H36C36 7.79086 37.7909 6 40 6V-6ZM56 10C56 1.16344 48.8366 -6 40 -6V6C42.2091 6 44 7.79086 44 10H56ZM62.1092 9.65311C59.2144 8.06387 56.1285 6.77619 52.8945 5.83339L49.536 17.3538C51.9199 18.0488 54.1963 18.9984 56.3343 20.1722L62.1092 9.65311ZM79.598 10.402C73.3497 4.1536 63.219 4.1536 56.9706 10.402L65.4559 18.8873C67.018 17.3252 69.5507 17.3252 71.1128 18.8873L79.598 10.402ZM79.598 33.0294C85.8464 26.781 85.8464 16.6504 79.598 10.402L71.1128 18.8873C72.6749 20.4494 72.6749 22.982 71.1128 24.5441L79.598 33.0294ZM86 50C86 41.9986 83.952 34.4576 80.3469 27.8909L69.8279 33.6657C72.4859 38.5075 74 44.068 74 50H86ZM80.3469 72.1091C83.952 65.5424 86 58.0014 86 50H74C74 55.932 72.4859 61.4925 69.8278 66.3343L80.3469 72.1091ZM71.1128 75.4559C72.6749 77.018 72.6749 79.5507 71.1128 81.1128L79.598 89.598C85.8464 83.3497 85.8464 73.219 79.598 66.9706L71.1128 75.4559ZM71.1128 81.1128C69.5507 82.6749 67.018 82.6749 65.4559 81.1128L56.9706 89.598C63.219 95.8464 73.3497 95.8464 79.598 89.598L71.1128 81.1128ZM52.8945 94.1666C56.1285 93.2238 59.2143 91.9361 62.1091 90.3469L56.3343 79.8278C54.1963 81.0016 51.9198 81.9512 49.536 82.6462L52.8945 94.1666ZM40 106C48.8366 106 56 98.8366 56 90H44C44 92.2091 42.2091 94 40 94V106ZM24 90C24 98.8365 31.1634 106 40 106V94C37.7909 94 36 92.2091 36 90H24ZM17.8907 90.3468C20.7855 91.9361 23.8714 93.2238 27.1055 94.1666L30.464 82.6462C28.0801 81.9512 25.8036 81.0015 23.6656 79.8278L17.8907 90.3468ZM0.402051 89.5979C6.65044 95.8463 16.7811 95.8463 23.0295 89.5979L14.5442 81.1126C12.9821 82.6747 10.4494 82.6747 8.88733 81.1126L0.402051 89.5979ZM0.402051 66.9705C-5.84634 73.2189 -5.84634 83.3495 0.402051 89.5979L8.88733 81.1126C7.32524 79.5505 7.32524 77.0179 8.88733 75.4558L0.402051 66.9705ZM-6 50C-6 58.0014 -3.95198 65.5425 -0.346856 72.1093L10.1722 66.3344C7.51408 61.4926 6 55.9321 6 50H-6ZM-0.346846 27.8907C-3.95197 34.4575 -6 41.9986 -6 50H6C6 44.0679 7.51409 38.5074 10.1722 33.6656L-0.346846 27.8907ZM0.402049 10.402C-5.84634 16.6504 -5.84634 26.781 0.402051 33.0294L8.88733 24.5441C7.32523 22.982 7.32523 20.4494 8.88733 18.8873L0.402049 10.402ZM23.0295 10.402C16.7811 4.1536 6.65044 4.1536 0.40205 10.402L8.88733 18.8873C10.4494 17.3252 12.9821 17.3252 14.5442 18.8873L23.0295 10.402ZM27.1055 5.83339C23.8715 6.77619 20.7856 8.06387 17.8908 9.6531L23.6657 20.1722C25.8037 18.9984 28.0801 18.0488 30.464 17.3538L27.1055 5.83339ZM8.88733 75.4558C11.3783 72.9649 11.7595 69.2257 10.1722 66.3344L-0.346856 72.1093C-1.21839 70.5218 -1.03713 68.4097 0.402055 66.9705L8.88733 75.4558ZM23.6656 79.8278C20.7742 78.2404 17.0351 78.6217 14.5442 81.1126L23.0295 89.5979C21.5903 91.0371 19.4783 91.2184 17.8907 90.3468L23.6656 79.8278ZM69.8278 66.3343C68.2405 69.2257 68.6218 72.9649 71.1128 75.4559L79.598 66.9706C81.0372 68.4098 81.2184 70.5217 80.3469 72.1091L69.8278 66.3343ZM10.1722 33.6656C11.7596 30.7742 11.3783 27.0351 8.88733 24.5441L0.402052 33.0294C-1.03712 31.5902 -1.21837 29.4782 -0.346846 27.8907L10.1722 33.6656ZM44 10C44 13.5206 46.3726 16.4316 49.536 17.3538L52.8945 5.83339C54.6337 6.34042 56 7.96287 56 10H44ZM65.4559 81.1128C62.9649 78.6218 59.2258 78.2405 56.3343 79.8278L62.1091 90.3469C60.5217 91.2184 58.4097 91.0371 56.9706 89.598L65.4559 81.1128ZM49.536 82.6462C46.3726 83.5684 44 86.4794 44 90H56C56 92.0371 54.6337 93.6596 52.8945 94.1666L49.536 82.6462ZM56.3343 20.1722C59.2258 21.7596 62.9649 21.3782 65.4559 18.8873L56.9706 10.402C58.4097 8.96289 60.5217 8.78159 62.1092 9.65311L56.3343 20.1722ZM14.5442 18.8873C17.0351 21.3782 20.7742 21.7595 23.6657 20.1722L17.8908 9.6531C19.4783 8.78156 21.5904 8.96288 23.0295 10.402L14.5442 18.8873ZM36 90C36 86.4794 33.6274 83.5684 30.464 82.6462L27.1055 94.1666C25.3663 93.6596 24 92.0371 24 90H36ZM30.464 17.3538C33.6274 16.4316 36 13.5206 36 10H24C24 7.96286 25.3663 6.34042 27.1055 5.83339L30.464 17.3538ZM71.1128 24.5441C68.6218 27.0351 68.2405 30.7743 69.8279 33.6657L80.3469 27.8909C81.2184 29.4783 81.0372 31.5903 79.598 33.0294L71.1128 24.5441Z" fill="black" fill-opacity="0.3" mask="url(#path-1-inside-1_366_23)"/>
<rect x="15.9584" y="57.071" width="12" height="24" rx="6" transform="rotate(-45 15.9584 57.071)" fill="white" stroke="#B30136" stroke-width="2"/>
<rect x="20.9081" y="39.3934" width="12" height="42" rx="6" transform="rotate(-45 20.9081 39.3934)" fill="white" stroke="#B30136" stroke-width="2"/>
<rect x="38.5858" y="34.4436" width="12" height="24" rx="6" transform="rotate(-45 38.5858 34.4436)" fill="white" stroke="#B30136" stroke-width="2"/>
<defs>
<radialGradient id="paint0_radial_366_23" cx="0" cy="0" r="1" gradientUnits="userSpaceOnUse" gradientTransform="translate(69 15.5) rotate(130.566) scale(86.8807 69.5045)">
<stop offset="0.0652456" stop-color="#FF82A8"/>
<stop offset="0.464991" stop-color="#FF014D"/>
<stop offset="0.947758" stop-color="#8F002B"/>
</radialGradient>
</defs>
</svg>