<svg width="80" height="100" viewBox="0 0 80 100" fill="none" xmlns="http://www.w3.org/2000/svg">
<path d="M20.201 52.8284C17.8579 55.1716 17.8579 58.9705 20.201 61.3137L28.6863 69.799C31.0294 72.1421 34.8284 72.1421 37.1716 69.799C39.5147 67.4558 39.5147 63.6568 37.1716 61.3137L28.6863 52.8284C26.3432 50.4853 22.5442 50.4853 20.201 52.8284Z" fill="#FF014D"/>
<path d="M25.1508 43.6361C22.8076 41.2929 22.8076 37.4939 25.1508 35.1508C27.4939 32.8076 31.2929 32.8076 33.6361 35.1508L54.8493 56.364C57.1924 58.7071 57.1924 62.5061 54.8493 64.8493C52.5061 67.1924 48.7071 67.1924 46.364 64.8493L25.1508 43.6361Z" fill="#FF014D"/>
<path d="M42.8285 30.201C40.4853 32.5441 40.4853 36.3431 42.8285 38.6862L51.3137 47.1715C53.6569 49.5147 57.4559 49.5147 59.799 47.1715C62.1422 44.8284 62.1422 41.0294 59.799 38.6862L51.3137 30.201C48.9706 27.8578 45.1716 27.8578 42.8285 30.201Z" fill="#FF014D"/>
<path fill-rule="evenodd" clip-rule="evenodd" d="M40 0C34.4772 0 30 4.47715 30 10V11.2602C26.3298 12.2048 22.8635 13.6573 19.6804 15.5382L18.7868 14.6446C14.8816 10.7394 8.54993 10.7394 4.64469 14.6446C0.739448 18.5499 0.739449 24.8815 4.64469 28.7868L5.53821 29.6803C2.0193 35.6354 0 42.5819 0 50C0 57.4181 2.01929 64.3645 5.53818 70.3196L4.64469 71.2131C0.739449 75.1184 0.739449 81.45 4.64469 85.3553C8.54993 89.2605 14.8816 89.2605 18.7868 85.3553L19.6803 84.4618C22.8634 86.3427 26.3298 87.7952 30 88.7398V90C30 95.5229 34.4772 100 40 100C45.5228 100 50 95.5229 50 90V88.7398C53.6702 87.7952 57.1366 86.3427 60.3197 84.4618L61.2133 85.3554C65.1185 89.2606 71.4502 89.2606 75.3554 85.3554C79.2606 81.4502 79.2606 75.1185 75.3554 71.2133L74.4618 70.3197C77.9807 64.3645 80 57.4181 80 50C80 42.5819 77.9807 35.6355 74.4618 29.6803L75.3554 28.7868C79.2606 24.8815 79.2606 18.5499 75.3554 14.6446C71.4502 10.7394 65.1185 10.7394 61.2133 14.6446L60.3197 15.5382C57.1366 13.6573 53.6702 12.2048 50 11.2602V10C50 4.47715 45.5228 0 40 0ZM20.201 69.7989L20.2232 69.8211C25.2884 74.8751 32.2793 78 40 78C55.464 78 68 65.464 68 50C68 34.536 55.464 22 40 22C24.536 22 12 34.536 12 50C12 57.7207 15.1249 64.7115 20.1788 69.7768L20.201 69.7989Z" fill="#FF014D"/>
</svg>