<svg width="81" height="100" viewBox="0 0 81 100" fill="none" xmlns="http://www.w3.org/2000/svg">
<path d="M35.6522 1.02057C38.3956 -0.34019 41.6047 -0.340189 44.3481 1.02057L74.4367 15.945C78.3734 17.8976 80.0969 21.546 80.0002 25.1302V60C80.0002 65.2529 78.9655 70.4543 76.9553 75.3073C74.9452 80.1604 71.9988 84.5699 68.2844 88.2843C64.5701 91.9986 60.1605 94.945 55.3075 96.9552C50.4545 98.9654 45.253 100 40.0002 100C34.7473 100 29.5458 98.9654 24.6928 96.9552C19.8398 94.945 15.4302 91.9986 11.7159 88.2843C8.00154 84.5699 5.05517 80.1604 3.04498 75.3073C1.03479 70.4543 0.00015958 65.2529 0.000160039 60V24.9008C-0.0191606 21.3905 1.71018 17.8563 5.56357 15.945L35.6522 1.02057Z" fill="url(#paint0_radial_366_24)"/>
<path d="M77.0013 25.0493L77.0002 25.0898V25.1302V60C77.0002 64.8589 76.0431 69.6702 74.1837 74.1593C72.3243 78.6483 69.5989 82.7272 66.1631 86.1629C62.7273 89.5987 58.6485 92.3241 54.1594 94.1835C49.6704 96.043 44.8591 97 40.0002 97C35.1413 97 30.3299 96.043 25.8409 94.1835C21.3518 92.3241 17.273 89.5987 13.8372 86.1629C10.4014 82.7272 7.67604 78.6483 5.81662 74.1593C3.95719 69.6702 3.00016 64.8589 3.00016 60V24.9008V24.8925L3.00011 24.8842C2.98647 22.4047 4.16877 19.9856 6.89664 18.6325L36.9853 3.70812C38.8888 2.76396 41.1115 2.76396 43.015 3.70812L73.1037 18.6325C75.8877 20.0134 77.0697 22.5114 77.0013 25.0493Z" stroke="black" stroke-opacity="0.3" stroke-width="6"/>
<rect x="34" y="25" width="12" height="52" rx="6" fill="white" stroke="#0052B1" stroke-width="2"/>
<rect x="18" y="31" width="12" height="36" rx="6" fill="white" stroke="#0052B1" stroke-width="2"/>
<rect x="50" y="31" width="12" height="36" rx="6" fill="white" stroke="#0052B1" stroke-width="2"/>
<defs>
<radialGradient id="paint0_radial_366_24" cx="0" cy="0" r="1" gradientUnits="userSpaceOnUse" gradientTransform="translate(70.5 15) rotate(128.057) scale(96.5207 77.2204)">
<stop stop-color="#95C6FF"/>
<stop offset="0.546853" stop-color="#0075FD"/>
<stop offset="0.941235" stop-color="#00397C"/>
</radialGradient>
</defs>
</svg>