<svg width="81" height="100" viewBox="0 0 81 100" fill="none" xmlns="http://www.w3.org/2000/svg">
<path fill-rule="evenodd" clip-rule="evenodd" d="M68.0002 26.1474L40.0002 12.259L12.0002 26.1474V60C12.0002 63.677 12.7244 67.318 14.1315 70.7151C15.5387 74.1122 17.6011 77.1989 20.2012 79.799C22.8012 82.399 25.8879 84.4615 29.285 85.8686L24.6928 96.9552C19.8398 94.945 15.4302 91.9986 11.7159 88.2843C8.00154 84.5699 5.05517 80.1604 3.04498 75.3073C1.03479 70.4543 0.00015958 65.2529 0.000160039 60V24.9008C-0.0191606 21.3905 1.71018 17.8563 5.56357 15.945L35.6522 1.02057C38.3956 -0.34019 41.6047 -0.340189 44.3481 1.02057L74.4367 15.945C78.3734 17.8976 80.0969 21.546 80.0002 25.1302V60C80.0002 65.2529 78.9655 70.4543 76.9553 75.3073C74.9452 80.1604 71.9988 84.5699 68.2844 88.2843C64.5701 91.9986 60.1605 94.945 55.3075 96.9552C50.4545 98.9654 45.253 100 40.0002 100C34.7473 100 29.5458 98.9654 24.6928 96.9552L29.285 85.8686C32.6821 87.2757 36.3231 88 40.0002 88C43.6772 88 47.3182 87.2758 50.7153 85.8686C54.1124 84.4615 57.1991 82.399 59.7991 79.799C62.3992 77.199 64.4617 74.1123 65.8688 70.7151C67.2759 67.318 68.0002 63.677 68.0002 60V26.1474ZM69.1034 26.6946L69.1045 26.6952Z" fill="#0075FD"/>
<path d="M34 31C34 27.6863 36.6863 25 40 25C43.3137 25 46 27.6863 46 31V71C46 74.3137 43.3137 77 40 77C36.6863 77 34 74.3137 34 71V31Z" fill="#0075FD"/>
<path d="M18 37C18 33.6863 20.6863 31 24 31C27.3137 31 30 33.6863 30 37V61C30 64.3137 27.3137 67 24 67C20.6863 67 18 64.3137 18 61V37Z" fill="#0075FD"/>
<path d="M50 37C50 33.6863 52.6863 31 56 31C59.3137 31 62 33.6863 62 37V61C62 64.3137 59.3137 67 56 67C52.6863 67 50 64.3137 50 61V37Z" fill="#0075FD"/>
</svg>