<svg width="93" height="87" viewBox="0 0 93 87" fill="none" xmlns="http://www.w3.org/2000/svg">
<path d="M57.4308 83.6025L35.1436 83.6025C27.641 83.6025 20.7083 79.6 16.9571 73.1025L5.81347 53.8013C2.06218 47.3038 2.06218 39.2987 5.81347 32.8013L16.9571 13.5C20.7084 7.00258 27.641 3 35.1436 3L57.4308 3C64.9333 3 71.866 7.00258 75.6173 13.5L86.7609 32.8013C90.5122 39.2987 90.5122 47.3039 86.7609 53.8013L75.6173 73.1025C71.866 79.6 64.9333 83.6025 57.4308 83.6025Z" fill="url(#paint0_radial_224_16)" stroke="#5C005C" stroke-width="6"/>
<path fill-rule="evenodd" clip-rule="evenodd" d="M71.9061 48.7459C72.9698 52.881 70.4982 57.1637 66.3857 58.3116C62.2731 59.4595 58.0769 57.0378 57.0132 52.9027L56.4573 50.7415C56.0025 48.9737 54.4087 47.738 52.5834 47.738H39.5697C37.7444 47.738 36.1505 48.9737 35.6958 50.7415L35.1398 52.9028C34.0761 57.038 29.8799 59.4596 25.7674 58.3118C21.6548 57.1639 19.1832 52.8812 20.2469 48.7461L24.376 32.6942C25.4397 28.5591 29.6359 26.1374 33.7485 27.2853C34.6704 27.5426 35.5098 27.9574 36.2455 28.4928C37.1893 29.1797 38.265 29.738 39.4323 29.738L52.7205 29.738C53.8878 29.738 54.9636 29.1797 55.9074 28.4928C56.6431 27.9573 57.4826 27.5424 58.4046 27.2851C62.5171 26.1372 66.7133 28.5589 67.777 32.694L71.9061 48.7459Z" fill="white"/>
<path d="M71.9061 48.7459L69.9692 49.2441L71.9061 48.7459ZM57.0132 52.9027L55.0763 53.4009L55.0763 53.4009L57.0132 52.9027ZM35.1398 52.9028L33.2029 52.4046L33.2029 52.4046L35.1398 52.9028ZM25.7674 58.3118L25.2297 60.2382L25.2297 60.2382L25.7674 58.3118ZM20.2469 48.7461L22.1839 49.2443L22.1839 49.2443L20.2469 48.7461ZM24.376 32.6942L22.4391 32.196L22.4391 32.196L24.376 32.6942ZM33.7485 27.2853L34.2861 25.3589L34.2861 25.3589L33.7485 27.2853ZM58.4046 27.2851L57.8669 25.3587L57.8669 25.3587L58.4046 27.2851ZM67.777 32.694L69.714 32.1958L69.714 32.1958L67.777 32.694ZM55.9074 28.4928L57.0844 30.1098L55.9074 28.4928ZM36.2455 28.4928L35.0686 30.1099L36.2455 28.4928ZM39.4323 29.738L39.4323 31.738L39.4323 29.738ZM35.6958 50.7415L33.7589 50.2433L35.6958 50.7415ZM66.9233 60.238C72.0845 58.7974 75.178 53.4371 73.8431 48.2476L69.9692 49.2441C70.7617 52.3249 68.912 55.53 65.848 56.3852L66.9233 60.238ZM55.0763 53.4009C56.4191 58.6213 61.7315 61.6871 66.9233 60.238L65.848 56.3852C62.8147 57.2318 59.7347 55.4543 58.9501 52.4044L55.0763 53.4009ZM54.5203 51.2398L55.0763 53.4009L58.9501 52.4044L58.3942 50.2433L54.5203 51.2398ZM52.5834 45.738H39.5697V49.738H52.5834V45.738ZM37.0768 53.4011L37.6328 51.2398L33.7589 50.2433L33.2029 52.4046L37.0768 53.4011ZM25.2297 60.2382C30.4216 61.6873 35.7339 58.6214 37.0768 53.4011L33.2029 52.4046C32.4184 55.4545 29.3383 57.232 26.305 56.3854L25.2297 60.2382ZM18.31 48.2478C16.9751 53.4373 20.0685 58.7976 25.2297 60.2382L26.305 56.3854C23.2411 55.5302 21.3914 52.3251 22.1839 49.2443L18.31 48.2478ZM22.4391 32.196L18.31 48.2478L22.1839 49.2443L26.3129 33.1925L22.4391 32.196ZM34.2861 25.3589C29.0943 23.9098 23.7819 26.9756 22.4391 32.196L26.3129 33.1925C27.0975 30.1425 30.1775 28.365 33.2108 29.2116L34.2861 25.3589ZM37.4224 26.8758C36.4981 26.2031 35.4429 25.6818 34.2861 25.3589L33.2108 29.2116C33.8979 29.4034 34.5216 29.7118 35.0686 30.1099L37.4224 26.8758ZM39.4323 31.738L52.7205 31.738L52.7205 27.738L39.4323 27.738L39.4323 31.738ZM57.8669 25.3587C56.7101 25.6816 55.6548 26.2029 54.7305 26.8757L57.0844 30.1098C57.6314 29.7116 58.2551 29.4032 58.9422 29.2115L57.8669 25.3587ZM69.714 32.1958C68.3711 26.9754 63.0588 23.9096 57.8669 25.3587L58.9422 29.2115C61.9755 28.3648 65.0555 30.1424 65.8401 33.1923L69.714 32.1958ZM73.8431 48.2476L69.714 32.1958L65.8401 33.1923L69.9692 49.2441L73.8431 48.2476ZM52.7205 31.738C54.5192 31.738 56.0182 30.8858 57.0844 30.1098L54.7305 26.8757C53.909 27.4736 53.2565 27.738 52.7205 27.738L52.7205 31.738ZM35.0686 30.1099C36.1347 30.8858 37.6337 31.738 39.4323 31.738L39.4323 27.738C38.8963 27.738 38.2439 27.4737 37.4224 26.8758L35.0686 30.1099ZM39.5697 45.738C36.8317 45.738 34.441 47.5916 33.7589 50.2433L37.6328 51.2398C37.8601 50.3559 38.657 49.738 39.5697 49.738V45.738ZM58.3942 50.2433C57.7121 47.5916 55.3214 45.738 52.5834 45.738V49.738C53.4961 49.738 54.293 50.3559 54.5203 51.2398L58.3942 50.2433Z" fill="#5C005C"/>
<defs>
<radialGradient id="paint0_radial_224_16" cx="0" cy="0" r="1" gradientUnits="userSpaceOnUse" gradientTransform="translate(16 79) rotate(-51.0333) scale(87.4586 93.4894)">
<stop offset="0.123308" stop-color="#7A007A"/>
<stop offset="0.459022" stop-color="#FF33FF"/>
<stop offset="0.73752" stop-color="#FF9AFF"/>
<stop offset="1" stop-color="white"/>
</radialGradient>
</defs>
</svg>