<svg width="93" height="87" viewBox="0 0 93 87" fill="none" xmlns="http://www.w3.org/2000/svg">
<path d="M57.4308 83.6025L35.1436 83.6025C27.641 83.6025 20.7083 79.6 16.9571 73.1025L5.81347 53.8013C2.06218 47.3038 2.06218 39.2987 5.81347 32.8013L16.9571 13.5C20.7084 7.00258 27.641 3 35.1436 3L57.4308 3C64.9333 3 71.866 7.00258 75.6173 13.5L86.7609 32.8013C90.5122 39.2987 90.5122 47.3039 86.7609 53.8013L75.6173 73.1025C71.866 79.6 64.9333 83.6025 57.4308 83.6025Z" fill="url(#paint0_linear_224_16)" stroke="#540069" stroke-width="6"/>
<path fill-rule="evenodd" clip-rule="evenodd" d="M71.9061 48.7459C72.9698 52.881 70.4982 57.1637 66.3857 58.3116C62.2731 59.4595 58.0769 57.0378 57.0132 52.9027L56.071 49.2398C55.8436 48.3559 55.0467 47.738 54.134 47.738H38.0191C37.1064 47.738 36.3095 48.3559 36.0821 49.2398L35.1398 52.9028C34.0761 57.038 29.8799 59.4596 25.7674 58.3118C21.6548 57.1639 19.1832 52.8812 20.2469 48.7461L24.376 32.6942C25.4397 28.5591 29.6359 26.1374 33.7485 27.2853C34.9823 27.6296 36.0684 28.2562 36.9556 29.0762C37.3843 29.4723 37.9291 29.738 38.5128 29.738L53.6401 29.738C54.2237 29.738 54.7686 29.4723 55.1972 29.0761C56.0845 28.256 57.1707 27.6295 58.4046 27.2851C62.5171 26.1372 66.7133 28.5589 67.777 32.694L71.9061 48.7459Z" fill="url(#paint1_linear_224_16)"/>
<path d="M71.9061 48.7459L69.9692 49.2441L69.9692 49.2441L71.9061 48.7459ZM57.0132 52.9027L55.0763 53.4009L55.0763 53.4009L57.0132 52.9027ZM35.1398 52.9028L37.0768 53.4011L37.0768 53.4011L35.1398 52.9028ZM25.7674 58.3118L26.305 56.3854L25.7674 58.3118ZM20.2469 48.7461L22.1839 49.2443L20.2469 48.7461ZM24.376 32.6942L22.4391 32.196L22.4391 32.196L24.376 32.6942ZM33.7485 27.2853L34.2861 25.3589L33.7485 27.2853ZM58.4046 27.2851L57.8669 25.3587L57.8669 25.3587L58.4046 27.2851ZM67.777 32.694L69.714 32.1958L69.714 32.1958L67.777 32.694ZM55.1972 29.0761L56.5548 30.5449L55.1972 29.0761ZM36.9556 29.0762L38.3131 27.6074L36.9556 29.0762ZM38.5128 29.738L38.5128 31.738L38.5128 29.738ZM36.0821 49.2398L34.1452 48.7415L36.0821 49.2398ZM56.071 49.2398L54.134 49.738L56.071 49.2398ZM66.9233 60.238C72.0845 58.7974 75.178 53.4371 73.8431 48.2476L69.9692 49.2441C70.7617 52.3249 68.912 55.53 65.848 56.3852L66.9233 60.238ZM55.0763 53.4009C56.4191 58.6213 61.7315 61.6871 66.9233 60.238L65.848 56.3852C62.8147 57.2318 59.7347 55.4543 58.9501 52.4044L55.0763 53.4009ZM54.134 49.738L55.0763 53.4009L58.9501 52.4044L58.0079 48.7415L54.134 49.738ZM54.134 45.738H38.0191V49.738H54.134V45.738ZM37.0768 53.4011L38.0191 49.738L34.1452 48.7415L33.2029 52.4046L37.0768 53.4011ZM25.2297 60.2382C30.4216 61.6873 35.7339 58.6214 37.0768 53.4011L33.2029 52.4046C32.4184 55.4545 29.3383 57.232 26.305 56.3854L25.2297 60.2382ZM18.31 48.2478C16.9751 53.4373 20.0685 58.7976 25.2297 60.2382L26.305 56.3854C23.2411 55.5302 21.3914 52.3251 22.1839 49.2443L18.31 48.2478ZM22.4391 32.196L18.31 48.2478L22.1839 49.2443L26.3129 33.1925L22.4391 32.196ZM34.2861 25.3589C29.0943 23.9098 23.7819 26.9756 22.4391 32.196L26.3129 33.1925C27.0975 30.1425 30.1775 28.365 33.2108 29.2116L34.2861 25.3589ZM38.3131 27.6074C37.2003 26.5789 35.8354 25.7913 34.2861 25.3589L33.2108 29.2116C34.1292 29.468 34.9365 29.9334 35.5982 30.5449L38.3131 27.6074ZM38.5128 31.738L53.6401 31.738L53.6401 27.738L38.5128 27.738L38.5128 31.738ZM57.8669 25.3587C56.3176 25.7911 54.9526 26.5788 53.8397 27.6074L56.5548 30.5449C57.2165 29.9332 58.0238 29.4678 58.9422 29.2115L57.8669 25.3587ZM69.714 32.1958C68.3711 26.9754 63.0588 23.9096 57.8669 25.3587L58.9422 29.2115C61.9755 28.3648 65.0555 30.1424 65.8401 33.1923L69.714 32.1958ZM73.8431 48.2476L69.714 32.1958L65.8401 33.1923L69.9692 49.2441L73.8431 48.2476ZM53.6401 31.738C54.8422 31.738 55.8509 31.1954 56.5548 30.5449L53.8397 27.6074C53.7694 27.6724 53.7086 27.7086 53.6693 27.7259C53.6328 27.742 53.6246 27.738 53.6401 27.738L53.6401 31.738ZM35.5982 30.5449C36.302 31.1955 37.3107 31.738 38.5128 31.738L38.5128 27.738C38.5283 27.738 38.5201 27.742 38.4835 27.7259C38.4443 27.7086 38.3835 27.6724 38.3131 27.6074L35.5982 30.5449ZM38.0191 45.738C36.1937 45.738 34.5999 46.9737 34.1452 48.7415L38.0191 49.738L38.0191 49.738V45.738ZM58.0079 48.7415C57.5532 46.9737 55.9594 45.738 54.134 45.738V49.738L54.134 49.738L58.0079 48.7415Z" fill="#540069"/>
<defs>
<linearGradient id="paint0_linear_224_16" x1="-9.60705e-07" y1="87" x2="93" y2="4.25326e-06" gradientUnits="userSpaceOnUse">
<stop offset="0.124342" stop-color="#61007A"/>
<stop offset="0.364575" stop-color="#D633FF"/>
<stop offset="0.584026" stop-color="#EB9AFF"/>
<stop offset="0.875107" stop-color="white"/>
</linearGradient>
<linearGradient id="paint1_linear_224_16" x1="4" y1="72.5" x2="72" y2="27" gradientUnits="userSpaceOnUse">
<stop offset="0.140009" stop-color="#D633FF"/>
<stop offset="0.867255" stop-color="white"/>
</linearGradient>
</defs>
</svg>