<svg width="201" height="183" viewBox="0 0 201 183" fill="none" xmlns="http://www.w3.org/2000/svg">
<mask id="path-1-inside-1_517_14" fill="white">
<path fill-rule="evenodd" clip-rule="evenodd" d="M65.195 35C65.195 15.67 80.865 0 100.195 0C119.525 0 135.195 15.67 135.195 35V76C135.195 83.8664 140.507 93.0668 147.319 97L182.826 117.5C199.567 127.165 205.302 148.571 195.637 165.311C185.972 182.051 164.567 187.787 147.826 178.122L112.319 157.622C105.496 153.682 94.8361 153.682 88.0129 157.622L52.5059 178.122C35.7656 187.787 14.36 182.051 4.69497 165.311C-4.97001 148.571 0.765616 127.165 17.5059 117.5L53.0129 97C59.819 93.0705 65.195 83.859 65.195 76V35Z"/>
</mask>
<path fill-rule="evenodd" clip-rule="evenodd" d="M65.195 35C65.195 15.67 80.865 0 100.195 0C119.525 0 135.195 15.67 135.195 35V76C135.195 83.8664 140.507 93.0668 147.319 97L182.826 117.5C199.567 127.165 205.302 148.571 195.637 165.311C185.972 182.051 164.567 187.787 147.826 178.122L112.319 157.622C105.496 153.682 94.8361 153.682 88.0129 157.622L52.5059 178.122C35.7656 187.787 14.36 182.051 4.69497 165.311C-4.97001 148.571 0.765616 127.165 17.5059 117.5L53.0129 97C59.819 93.0705 65.195 83.859 65.195 76V35Z" fill="white"/>
<path fill-rule="evenodd" clip-rule="evenodd" d="M65.195 35C65.195 15.67 80.865 0 100.195 0C119.525 0 135.195 15.67 135.195 35V76C135.195 83.8664 140.507 93.0668 147.319 97L182.826 117.5C199.567 127.165 205.302 148.571 195.637 165.311C185.972 182.051 164.567 187.787 147.826 178.122L112.319 157.622C105.496 153.682 94.8361 153.682 88.0129 157.622L52.5059 178.122C35.7656 187.787 14.36 182.051 4.69497 165.311C-4.97001 148.571 0.765616 127.165 17.5059 117.5L53.0129 97C59.819 93.0705 65.195 83.859 65.195 76V35Z" fill="url(#paint0_radial_517_14)"/>
<path fill-rule="evenodd" clip-rule="evenodd" d="M65.195 35C65.195 15.67 80.865 0 100.195 0C119.525 0 135.195 15.67 135.195 35V76C135.195 83.8664 140.507 93.0668 147.319 97L182.826 117.5C199.567 127.165 205.302 148.571 195.637 165.311C185.972 182.051 164.567 187.787 147.826 178.122L112.319 157.622C105.496 153.682 94.8361 153.682 88.0129 157.622L52.5059 178.122C35.7656 187.787 14.36 182.051 4.69497 165.311C-4.97001 148.571 0.765616 127.165 17.5059 117.5L53.0129 97C59.819 93.0705 65.195 83.859 65.195 76V35Z" fill="url(#paint1_radial_517_14)"/>
<path fill-rule="evenodd" clip-rule="evenodd" d="M65.195 35C65.195 15.67 80.865 0 100.195 0C119.525 0 135.195 15.67 135.195 35V76C135.195 83.8664 140.507 93.0668 147.319 97L182.826 117.5C199.567 127.165 205.302 148.571 195.637 165.311C185.972 182.051 164.567 187.787 147.826 178.122L112.319 157.622C105.496 153.682 94.8361 153.682 88.0129 157.622L52.5059 178.122C35.7656 187.787 14.36 182.051 4.69497 165.311C-4.97001 148.571 0.765616 127.165 17.5059 117.5L53.0129 97C59.819 93.0705 65.195 83.859 65.195 76V35Z" fill="url(#paint2_radial_517_14)"/>
<path d="M182.826 117.5L183.826 115.768L182.826 117.5ZM195.637 165.311L197.369 166.311L195.637 165.311ZM147.826 178.122L146.826 179.854L147.826 178.122ZM87.0129 155.89C86.0563 156.442 85.7286 157.665 86.2809 158.622C86.8331 159.578 88.0563 159.906 89.0129 159.354L87.0129 155.89ZM52.5059 178.122L53.5059 179.854L52.5059 178.122ZM4.69497 165.311L2.96292 166.311H2.96292L4.69497 165.311ZM17.5059 117.5L16.5059 115.768L17.5059 117.5ZM52.0129 95.268C51.0563 95.8203 50.7286 97.0434 51.2808 98C51.8331 98.9566 53.0563 99.2843 54.0129 98.7321L52.0129 95.268ZM88.0129 157.622L89.0129 159.354L88.0129 157.622ZM147.319 97L148.319 95.2679L147.319 97ZM100.195 -2C79.7604 -2 63.195 14.5655 63.195 35H67.195C67.195 16.7746 81.9696 2 100.195 2V-2ZM137.195 35C137.195 14.5655 120.63 -2 100.195 -2V2C118.42 2 133.195 16.7746 133.195 35H137.195ZM137.195 76V35H133.195V76H137.195ZM183.826 115.768L148.319 95.2679L146.319 98.732L181.826 119.232L183.826 115.768ZM197.369 166.311C207.587 148.614 201.523 125.985 183.826 115.768L181.826 119.232C197.61 128.345 203.018 148.527 193.905 164.311L197.369 166.311ZM146.826 179.854C164.523 190.071 187.152 184.008 197.369 166.311L193.905 164.311C184.792 180.095 164.61 185.502 148.826 176.39L146.826 179.854ZM111.319 159.354L146.826 179.854L148.826 176.39L113.319 155.89L111.319 159.354ZM87.0129 155.89L51.5059 176.39L53.5059 179.854L89.0129 159.354L87.0129 155.89ZM51.5059 176.39C35.7222 185.502 15.5397 180.095 6.42702 164.311L2.96292 166.311C13.1802 184.008 35.809 190.071 53.5059 179.854L51.5059 176.39ZM6.42702 164.311C-2.68568 148.527 2.7222 128.345 18.5059 119.232L16.5059 115.768C-1.19097 125.985 -7.25435 148.614 2.96292 166.311L6.42702 164.311ZM18.5059 119.232L54.0129 98.7321L52.0129 95.268L16.5059 115.768L18.5059 119.232ZM63.195 35V76H67.195V35H63.195ZM54.0129 98.7321C57.7803 96.5569 61.0551 92.9881 63.3854 88.9785C65.7154 84.9693 67.195 80.3578 67.195 76H63.195C63.195 79.5012 61.9865 83.4249 59.927 86.9686C57.8678 90.5119 55.0515 93.5136 52.0129 95.268L54.0129 98.7321ZM113.319 155.89C109.541 153.708 104.807 152.667 100.166 152.667C95.5248 152.667 90.7915 153.708 87.0129 155.89L89.0129 159.354C92.0575 157.596 96.0658 156.667 100.166 156.667C104.266 156.667 108.275 157.596 111.319 159.354L113.319 155.89ZM133.195 76C133.195 80.3564 134.655 84.9651 136.97 88.9749C139.285 92.9847 142.547 96.5538 146.319 98.732L148.319 95.2679C145.28 93.513 142.478 90.5152 140.435 86.975C138.391 83.4347 137.195 79.51 137.195 76H133.195Z" fill="url(#paint3_radial_517_14)" mask="url(#path-1-inside-1_517_14)"/>
<path d="M112.124 138C106.736 147.333 93.2642 147.333 87.8756 138L70.5551 108C65.1665 98.6667 71.9023 87 82.6795 87L117.321 87C128.098 87 134.833 98.6667 129.445 108L112.124 138Z" fill="url(#paint4_radial_517_14)" stroke="url(#paint5_linear_517_14)" stroke-width="2"/>
<defs>
<radialGradient id="paint0_radial_517_14" cx="0" cy="0" r="1" gradientUnits="userSpaceOnUse" gradientTransform="translate(7.44812e-06 170) rotate(-4.51665) scale(234.925 257.432)">
<stop stop-color="#FF1A4D"/>
<stop offset="0.272286" stop-color="#FF3CA5"/>
<stop offset="0.793525" stop-color="white" stop-opacity="0.3"/>
</radialGradient>
<radialGradient id="paint1_radial_517_14" cx="0" cy="0" r="1" gradientUnits="userSpaceOnUse" gradientTransform="translate(210 204.5) rotate(-120.853) scale(218.99 239.971)">
<stop offset="0.0559706" stop-color="#1A68FF"/>
<stop offset="0.462194" stop-color="#5AE1FF"/>
<stop offset="0.689619" stop-color="white" stop-opacity="0"/>
</radialGradient>
<radialGradient id="paint2_radial_517_14" cx="0" cy="0" r="1" gradientUnits="userSpaceOnUse" gradientTransform="translate(100 -3) rotate(89.9147) scale(131 143.551)">
<stop offset="0.000108032" stop-color="#96FF2D"/>
<stop offset="0.442423" stop-color="#2DFF82"/>
<stop offset="0.941374" stop-color="#66FFA4" stop-opacity="0"/>
</radialGradient>
<radialGradient id="paint3_radial_517_14" cx="0" cy="0" r="1" gradientUnits="userSpaceOnUse" gradientTransform="translate(100.195 108.5) rotate(90.0222) scale(74.3168 81.437)">
<stop offset="0.651042" stop-color="white"/>
<stop offset="1" stop-color="white" stop-opacity="0"/>
</radialGradient>
<radialGradient id="paint4_radial_517_14" cx="0" cy="0" r="1" gradientUnits="userSpaceOnUse" gradientTransform="translate(100 147.5) rotate(-90) scale(86.5)">
<stop offset="0.202448" stop-color="white"/>
<stop offset="0.830109" stop-color="white" stop-opacity="0"/>
</radialGradient>
<linearGradient id="paint5_linear_517_14" x1="100" y1="161" x2="100" y2="61" gradientUnits="userSpaceOnUse">
<stop offset="0.307389" stop-color="white"/>
<stop offset="1" stop-color="white" stop-opacity="0"/>
</linearGradient>
</defs>
</svg>