<svg width="98" height="93" viewBox="0 0 98 93" fill="none" xmlns="http://www.w3.org/2000/svg">
<path d="M43.8757 5.69402C46.3432 2.10199 51.6568 2.10199 54.1243 5.69402L66.0086 22.994C66.8164 24.1698 68.0058 25.032 69.3764 25.4351L89.5407 31.3652C93.7274 32.5965 95.3694 37.6381 92.7077 41.0894L79.8882 57.7115C79.0169 58.8413 78.5626 60.2363 78.6019 61.6613L79.1798 82.6263C79.2998 86.9793 75.0011 90.0952 70.8885 88.6362L51.0814 81.6092C49.7351 81.1316 48.2649 81.1316 46.9186 81.6092L27.1115 88.6362C22.9989 90.0952 18.7002 86.9793 18.8202 82.6263L19.3981 61.6613C19.4374 60.2363 18.9831 58.8413 18.1117 57.7115L5.29233 41.0894C2.63061 37.6381 4.27258 32.5965 8.45935 31.3652L28.6236 25.4351C29.9942 25.032 31.1836 24.1698 31.9914 22.994L43.8757 5.69402Z" fill="url(#paint0_linear_252_9)" stroke="#4B3600" stroke-width="6"/>
<path fill-rule="evenodd" clip-rule="evenodd" d="M35 39.7077C35 37.1077 37.1077 35 39.7077 35H57.4923C60.0923 35 62.2 37.1077 62.2 39.7077V41.8C62.2 47.7215 58.4155 52.7592 53.1333 54.6261V60.0761C55.0886 60.5793 56.5333 62.3543 56.5333 64.4666C56.5333 66.9703 54.5037 69 52 69H45.2C42.6963 69 40.6667 66.9703 40.6667 64.4666C40.6667 62.3543 42.1114 60.5794 44.0667 60.0761V54.6261C38.7845 52.7591 35 47.7215 35 41.8V39.7077Z" fill="url(#paint1_linear_252_9)"/>
<path d="M53.1333 54.6261L52.4668 52.7405L51.1333 53.2118V54.6261H53.1333ZM53.1333 60.0761H51.1333V61.6265L52.6348 62.013L53.1333 60.0761ZM40.6667 64.4666L42.6667 64.4666V64.4666H40.6667ZM44.0667 60.0761L44.5652 62.013L46.0667 61.6265V60.0761H44.0667ZM44.0667 54.6261H46.0667V53.2118L44.7331 52.7405L44.0667 54.6261ZM39.7077 33C36.0031 33 33 36.0031 33 39.7077H37C37 38.2123 38.2123 37 39.7077 37V33ZM57.4923 33H39.7077V37H57.4923V33ZM64.2 39.7077C64.2 36.0031 61.1969 33 57.4923 33V37C58.9877 37 60.2 38.2123 60.2 39.7077H64.2ZM64.2 41.8V39.7077H60.2V41.8H64.2ZM53.7998 56.5118C59.8561 54.3712 64.2 48.5955 64.2 41.8H60.2C60.2 46.8476 56.9749 51.1471 52.4668 52.7405L53.7998 56.5118ZM55.1333 60.0761V54.6261H51.1333V60.0761H55.1333ZM52.6348 62.013C53.7279 62.2943 54.5333 63.2889 54.5333 64.4666H58.5333C58.5333 61.4196 56.4493 58.8644 53.6318 58.1392L52.6348 62.013ZM54.5333 64.4666C54.5333 65.8657 53.3991 67 52 67V71C55.6083 71 58.5333 68.0749 58.5333 64.4666H54.5333ZM52 67H45.2V71H52V67ZM45.2 67C43.8009 67 42.6667 65.8657 42.6667 64.4666L38.6667 64.4666C38.6667 68.0749 41.5917 71 45.2 71V67ZM42.6667 64.4666C42.6667 63.2889 43.4721 62.2943 44.5652 62.013L43.5681 58.1392C40.7507 58.8644 38.6667 61.4196 38.6667 64.4666H42.6667ZM42.0667 54.6261V60.0761H46.0667V54.6261H42.0667ZM33 41.8C33 48.5955 37.3439 54.3712 43.4002 56.5118L44.7331 52.7405C40.225 51.1471 37 46.8476 37 41.8H33ZM33 39.7077V41.8H37V39.7077H33Z" fill="#4B3600"/>
<defs>
<linearGradient id="paint0_linear_252_9" x1="87.8267" y1="6.49819" x2="-2.54585" y2="101.742" gradientUnits="userSpaceOnUse">
<stop offset="0.0661985" stop-color="white"/>
<stop offset="0.456089" stop-color="#FFB802"/>
<stop offset="0.764054" stop-color="#9D7100"/>
</linearGradient>
<linearGradient id="paint1_linear_252_9" x1="48.6" y1="35" x2="48.6" y2="74.0999" gradientUnits="userSpaceOnUse">
<stop offset="0.0993995" stop-color="white"/>
<stop offset="0.9344" stop-color="#FFB802"/>
</linearGradient>
</defs>
</svg>