<svg width="98" height="93" viewBox="0 0 98 93" fill="none" xmlns="http://www.w3.org/2000/svg">
<path d="M43.8757 5.69402C46.3432 2.10199 51.6568 2.10199 54.1243 5.69402L66.0086 22.994C66.8164 24.1698 68.0058 25.032 69.3764 25.4351L89.5407 31.3652C93.7274 32.5965 95.3694 37.6381 92.7077 41.0894L79.8882 57.7115C79.0169 58.8413 78.5626 60.2363 78.6019 61.6613L79.1798 82.6263C79.2998 86.9793 75.0011 90.0952 70.8885 88.6362L51.0814 81.6092C49.7351 81.1316 48.2649 81.1316 46.9186 81.6092L27.1115 88.6362C22.9989 90.0952 18.7002 86.9793 18.8202 82.6263L19.3981 61.6613C19.4374 60.2363 18.9831 58.8413 18.1117 57.7115L5.29233 41.0894C2.63061 37.6381 4.27258 32.5965 8.45935 31.3652L28.6236 25.4351C29.9942 25.032 31.1836 24.1698 31.9914 22.994L43.8757 5.69402Z" fill="url(#paint0_radial_252_9)" stroke="#664900" stroke-width="6"/>
<path fill-rule="evenodd" clip-rule="evenodd" d="M35 39.7077C35 37.1077 37.1077 35 39.7077 35H57.4923C60.0923 35 62.2 37.1077 62.2 39.7077V41.8C62.2 46.7981 59.5039 51.1664 55.4867 53.53C54.1437 54.3202 53.1333 55.6679 53.1333 57.2261V57.2261C53.1333 58.9036 54.4298 60.2888 55.4977 61.5825C56.1447 62.3662 56.5333 63.371 56.5333 64.4666C56.5333 66.9703 54.5037 69 52 69H45.2C42.6963 69 40.6667 66.9703 40.6667 64.4666C40.6667 63.371 41.0553 62.3662 41.7022 61.5825C42.7702 60.2889 44.0667 58.9036 44.0667 57.2261V57.2261C44.0667 55.6679 43.0563 54.3201 41.7133 53.53C37.6961 51.1664 35 46.7981 35 41.8V39.7077Z" fill="white"/>
<path d="M40.6667 64.4666L42.6667 64.4666V64.4666H40.6667ZM41.7133 53.53L40.6991 55.2538L41.7133 53.53ZM41.7022 61.5825L40.1599 60.3093L41.7022 61.5825ZM55.4977 61.5825L57.0401 60.3093L55.4977 61.5825ZM55.4867 53.53L54.4724 51.8062L55.4867 53.53ZM39.7077 33C36.0031 33 33 36.0031 33 39.7077H37C37 38.2123 38.2123 37 39.7077 37V33ZM57.4923 33H39.7077V37H57.4923V33ZM64.2 39.7077C64.2 36.0031 61.1969 33 57.4923 33V37C58.9877 37 60.2 38.2123 60.2 39.7077H64.2ZM64.2 41.8V39.7077H60.2V41.8H64.2ZM56.5009 55.2538C61.1036 52.5457 64.2 47.5355 64.2 41.8H60.2C60.2 46.0606 57.9041 49.7872 54.4724 51.8062L56.5009 55.2538ZM53.9554 62.8557C54.3174 63.2943 54.5333 63.8526 54.5333 64.4666H58.5333C58.5333 62.8895 57.9719 61.4381 57.0401 60.3093L53.9554 62.8557ZM54.5333 64.4666C54.5333 65.8657 53.3991 67 52 67V71C55.6083 71 58.5333 68.0749 58.5333 64.4666H54.5333ZM52 67H45.2V71H52V67ZM45.2 67C43.8009 67 42.6667 65.8657 42.6667 64.4666L38.6667 64.4666C38.6667 68.0749 41.5917 71 45.2 71V67ZM42.6667 64.4666C42.6667 63.8526 42.8826 63.2943 43.2446 62.8558L40.1599 60.3093C39.228 61.4381 38.6667 62.8895 38.6667 64.4666H42.6667ZM33 41.8C33 47.5355 36.0964 52.5457 40.6991 55.2538L42.7275 51.8062C39.2959 49.7871 37 46.0606 37 41.8H33ZM33 39.7077V41.8H37V39.7077H33ZM46.0667 57.2261C46.0667 54.7611 44.4887 52.8424 42.7275 51.8062L40.6991 55.2538C41.6239 55.7979 42.0667 56.5747 42.0667 57.2261H46.0667ZM43.2446 62.8558C43.7162 62.2845 44.4277 61.476 44.9713 60.6235C45.5348 59.7397 46.0667 58.5954 46.0667 57.2261H42.0667C42.0667 57.5342 41.9503 57.9213 41.5985 58.473C41.2269 59.0559 40.7562 59.5869 40.1599 60.3093L43.2446 62.8558ZM51.1333 57.2261C51.1333 58.5954 51.6652 59.7397 52.2287 60.6235C52.7722 61.476 53.4838 62.2845 53.9554 62.8557L57.0401 60.3093C56.4438 59.5869 55.9731 59.0559 55.6014 58.473C55.2497 57.9213 55.1333 57.5342 55.1333 57.2261H51.1333ZM54.4724 51.8062C52.7113 52.8424 51.1333 54.7611 51.1333 57.2261H55.1333C55.1333 56.5747 55.5761 55.7979 56.5009 55.2538L54.4724 51.8062Z" fill="#664900"/>
<defs>
<radialGradient id="paint0_radial_252_9" cx="0" cy="0" r="1" gradientUnits="userSpaceOnUse" gradientTransform="translate(76 27) rotate(132.01) scale(94.8815 94.8924)">
<stop stop-color="white"/>
<stop offset="0.482384" stop-color="#FFB802"/>
<stop offset="0.72648" stop-color="#9D7100"/>
</radialGradient>
</defs>
</svg>