<svg width="119" height="140" viewBox="0 0 119 140" fill="none" xmlns="http://www.w3.org/2000/svg">
<circle cx="60" cy="81" r="50" fill="url(#paint0_radial_0_1)"/>
<circle cx="60" cy="81" r="46" stroke="black" stroke-opacity="0.15" stroke-width="8" stroke-linecap="round"/>
<path d="M106.096 78.5201C113.923 80.3625 120.234 87.1131 118.373 94.9357C113.194 116.713 96.1438 133.889 74.4382 139.251C66.4188 141.233 59.6081 134.596 57.7871 126.539C45.5866 72.5587 0 111.732 0 81C0 47.8629 26.8629 0.5 60 0.5C91.3096 0.5 34.4391 61.653 106.096 78.5201Z" fill="url(#paint1_radial_0_1)"/>
<path d="M116.428 94.4729C111.421 115.521 94.9377 132.127 73.9585 137.31C70.6532 138.126 67.5817 137.196 65.0607 135.117C62.5073 133.011 60.5619 129.744 59.7379 126.098C56.6175 112.292 51.2863 104.128 44.7946 99.3603C38.3344 94.6159 31.0187 93.4603 24.4413 93.0553C22.793 92.9538 21.175 92.899 19.626 92.8505C19.4627 92.8454 19.3003 92.8403 19.1388 92.8353C17.7583 92.7925 16.4409 92.7517 15.174 92.684C12.3224 92.5316 9.91148 92.2495 7.94772 91.5929C6.03509 90.9534 4.63157 89.9878 3.66483 88.4845C2.67311 86.9423 2 84.615 2 81C2 64.8957 8.55679 45.1555 19.228 29.4475C29.9342 13.6878 44.4083 2.5 60 2.5C63.6172 2.5 65.5081 3.38156 66.5645 4.5206C67.659 5.70081 68.2458 7.5659 68.3355 10.3824C68.4247 13.1838 68.0163 16.5616 67.4697 20.461C67.3881 21.0427 67.3037 21.635 67.2179 22.2365C66.7372 25.6077 66.2147 29.2729 65.9238 33.0305C65.2378 41.8907 65.799 51.6475 71.3861 60.2987C76.9937 68.9815 87.4153 76.1776 105.638 80.4669C112.867 82.1686 117.931 88.1501 116.428 94.4729Z" stroke="black" stroke-opacity="0.4" stroke-width="4"/>
<defs>
<radialGradient id="paint0_radial_0_1" cx="0" cy="0" r="1" gradientUnits="userSpaceOnUse" gradientTransform="translate(93 47.5) rotate(131.322) scale(99.1993)">
<stop offset="0.124268" stop-color="white"/>
<stop offset="1" stop-color="#8D8D8D"/>
</radialGradient>
<radialGradient id="paint1_radial_0_1" cx="0" cy="0" r="1" gradientUnits="userSpaceOnUse" gradientTransform="translate(68.5 8) rotate(91.6366) scale(122.55 162.95)">
<stop stop-color="#FF6060"/>
<stop offset="0.161472" stop-color="#FFC52F"/>
<stop offset="0.333354" stop-color="#EFFF38"/>
<stop offset="0.51366" stop-color="#38FF64"/>
<stop offset="0.684539" stop-color="#36E7FF"/>
<stop offset="0.838358" stop-color="#535AFF"/>
<stop offset="1" stop-color="#DE58FF"/>
</radialGradient>
</defs>
</svg>