<svg width="102" height="94" viewBox="0 0 102 94" fill="none" xmlns="http://www.w3.org/2000/svg">
<path d="M22.3947 15.7896C21.373 12.9431 21.6018 9.50291 24.1408 7.81143C25.9939 6.57689 27.9392 5.46649 29.9645 4.49238C32.7212 3.16646 35.864 4.69321 37.8568 6.99054C41.0262 10.6441 45.7385 12.9603 51 12.9603C56.2615 12.9603 60.9738 10.6441 64.1432 6.99053C66.136 4.69321 69.2788 3.16646 72.0355 4.49238C74.0608 5.46649 76.0061 6.57688 77.8592 7.81142C80.3982 9.5029 80.627 12.9431 79.6053 15.7896C77.9797 20.3185 78.3001 25.4938 80.9298 29.9801C83.5589 34.4652 87.9476 37.3259 92.7412 38.2045C95.7592 38.7577 98.673 40.6786 98.8845 43.695C98.9611 44.7869 99 45.889 99 47C99 48.111 98.9611 49.2131 98.8845 50.3049C98.6731 53.3213 95.7592 55.2422 92.7412 55.7954C87.9476 56.674 83.5589 59.5347 80.9298 64.0198C78.3001 68.5061 77.9797 73.6814 79.6053 78.2104C80.627 81.0568 80.3982 84.4971 77.8592 86.1886C76.0061 87.4231 74.0608 88.5335 72.0355 89.5076C69.2788 90.8335 66.136 89.3068 64.1432 87.0095C60.9738 83.3559 56.2615 81.0398 51 81.0398C45.7385 81.0398 41.0262 83.3559 37.8568 87.0095C35.864 89.3068 32.7212 90.8335 29.9645 89.5076C27.9392 88.5335 25.9939 87.4231 24.1408 86.1886C21.6018 84.4971 21.373 81.0568 22.3947 78.2104C24.0203 73.6814 23.6999 68.5061 21.0702 64.0198C18.4411 59.5347 14.0524 56.674 9.25878 55.7954C6.2408 55.2422 3.32693 53.3213 3.11546 50.3049C3.03891 49.2131 3 48.111 3 47C3 45.889 3.03891 44.7869 3.11546 43.695C3.32695 40.6786 6.24081 38.7577 9.25878 38.2045C14.0524 37.3259 18.4411 34.4652 21.0701 29.9801C23.6999 25.4938 24.0203 20.3186 22.3947 15.7896Z" fill="url(#paint0_radial_180_17)" stroke="#353461" stroke-width="6"/>
<circle cx="51" cy="47" r="16" fill="white" stroke="#353461" stroke-width="4"/>
<defs>
<radialGradient id="paint0_radial_180_17" cx="0" cy="0" r="1" gradientUnits="userSpaceOnUse" gradientTransform="translate(14.5 87.5) rotate(-53.0112) scale(96.4002 107.61)">
<stop offset="0.106467" stop-color="#353461"/>
<stop offset="0.513771" stop-color="#9594BF"/>
<stop offset="0.793975" stop-color="#DDDCEF"/>
<stop offset="1" stop-color="white"/>
</radialGradient>
</defs>
</svg>