<svg width="60" height="60" viewBox="0 0 60 60" fill="none" xmlns="http://www.w3.org/2000/svg">
<mask id="path-1-outside-1_389_15" maskUnits="userSpaceOnUse" x="7.91098" y="8" width="44" height="40" fill="black">
<rect fill="white" x="7.91098" y="8" width="44" height="40"/>
<path fill-rule="evenodd" clip-rule="evenodd" d="M39 19C39 22.1914 37.3388 24.9949 34.834 26.5929C38.328 27.4633 41.5534 29.2691 44.1421 31.8579C46.2226 33.9384 47.7974 36.43 48.7874 39.1419C50.1131 42.7735 46.866 46 43 46H41.9589C41.9861 45.6703 42 45.3368 42 45C42 38.3726 36.6274 33 30 33C23.3726 33 18 38.3726 18 45C18 45.3368 18.0139 45.6703 18.0411 46H17C13.134 46 9.88685 42.7735 11.2126 39.1419C12.2026 36.43 13.7773 33.9384 15.8578 31.8579C18.4466 29.2691 21.6719 27.4633 25.166 26.5929C22.6611 24.9949 21 22.1914 21 19C21 14.0294 25.0294 10 30 10C34.9705 10 39 14.0294 39 19Z"/>
</mask>
<g filter="url(#filter0_i_389_15)">
<path fill-rule="evenodd" clip-rule="evenodd" d="M39 19C39 22.1914 37.3388 24.9949 34.834 26.5929C38.328 27.4633 41.5534 29.2691 44.1421 31.8579C46.2226 33.9384 47.7974 36.43 48.7874 39.1419C50.1131 42.7735 46.866 46 43 46H41.9589C41.9861 45.6703 42 45.3368 42 45C42 38.3726 36.6274 33 30 33C23.3726 33 18 38.3726 18 45C18 45.3368 18.0139 45.6703 18.0411 46H17C13.134 46 9.88685 42.7735 11.2126 39.1419C12.2026 36.43 13.7773 33.9384 15.8578 31.8579C18.4466 29.2691 21.6719 27.4633 25.166 26.5929C22.6611 24.9949 21 22.1914 21 19C21 14.0294 25.0294 10 30 10C34.9705 10 39 14.0294 39 19Z" fill="white"/>
</g>
<path d="M34.834 26.5929L33.7583 24.9068L29.8362 27.409L34.3506 28.5336L34.834 26.5929ZM44.1421 31.8579L45.5563 30.4437L45.5563 30.4437L44.1421 31.8579ZM48.7874 39.1419L46.9087 39.8277L46.9087 39.8277L48.7874 39.1419ZM41.9589 46L39.9657 45.8356L39.7871 48H41.9589V46ZM18.0411 46V48H20.2129L20.0343 45.8356L18.0411 46ZM11.2126 39.1419L9.33385 38.456L11.2126 39.1419ZM15.8578 31.8579L17.2721 33.2721L17.2721 33.2721L15.8578 31.8579ZM25.166 26.5929L25.6494 28.5336L30.1637 27.409L26.2416 24.9068L25.166 26.5929ZM35.9097 28.279C38.966 26.3292 41 22.9028 41 19H37C37 21.4801 35.7117 23.6606 33.7583 24.9068L35.9097 28.279ZM45.5563 30.4437C42.7087 27.596 39.1607 25.6096 35.3175 24.6522L34.3506 28.5336C37.4953 29.317 40.3981 30.9423 42.7279 33.2721L45.5563 30.4437ZM50.6661 38.456C49.5772 35.4731 47.8449 32.7322 45.5563 30.4437L42.7279 33.2721C44.6003 35.1445 46.0176 37.3869 46.9087 39.8277L50.6661 38.456ZM43 48C45.4705 48 47.8013 46.974 49.3302 45.2673C50.8978 43.5175 51.609 41.0389 50.6661 38.456L46.9087 39.8277C47.2915 40.8764 47.042 41.8269 46.3509 42.5983C45.6212 43.4128 44.3955 44 43 44V48ZM41.9589 48H43V44H41.9589V48ZM40 45C40 45.2818 39.9884 45.5605 39.9657 45.8356L43.9522 46.1644C43.9839 45.7801 44 45.3917 44 45H40ZM30 35C35.5228 35 40 39.4772 40 45H44C44 37.268 37.732 31 30 31V35ZM20 45C20 39.4772 24.4772 35 30 35V31C22.268 31 16 37.268 16 45H20ZM20.0343 45.8356C20.0116 45.5605 20 45.2818 20 45H16C16 45.3917 16.0161 45.7801 16.0478 46.1644L20.0343 45.8356ZM17 48H18.0411V44H17V48ZM9.33385 38.456C8.39095 41.0389 9.10218 43.5175 10.6697 45.2673C12.1987 46.974 14.5295 48 17 48V44C15.6045 44 14.3787 43.4128 13.649 42.5983C12.958 41.8269 12.7085 40.8764 13.0913 39.8277L9.33385 38.456ZM14.4436 30.4436C12.1551 32.7322 10.4228 35.4731 9.33385 38.456L13.0913 39.8277C13.9823 37.3869 15.3996 35.1445 17.2721 33.2721L14.4436 30.4436ZM24.6825 24.6522C20.8393 25.6096 17.2913 27.596 14.4436 30.4436L17.2721 33.2721C19.6019 30.9423 22.5046 29.317 25.6494 28.5336L24.6825 24.6522ZM19 19C19 22.9028 21.034 26.3292 24.0903 28.279L26.2416 24.9068C24.2883 23.6606 23 21.4801 23 19H19ZM30 8C23.9248 8 19 12.9249 19 19H23C23 15.134 26.134 12 30 12V8ZM41 19C41 12.9249 36.0751 8 30 8V12C33.866 12 37 15.134 37 19H41Z" fill="black" mask="url(#path-1-outside-1_389_15)"/>
<g filter="url(#filter1_i_389_15)">
<circle cx="30" cy="45" r="8" fill="url(#paint0_radial_389_15)"/>
</g>
<circle cx="30" cy="45" r="7" stroke="black" stroke-width="2"/>
<defs>
<filter id="filter0_i_389_15" x="8.91006" y="8" width="42.1799" height="44" filterUnits="userSpaceOnUse" color-interpolation-filters="sRGB">
<feFlood flood-opacity="0" result="BackgroundImageFix"/>
<feBlend mode="normal" in="SourceGraphic" in2="BackgroundImageFix" result="shape"/>
<feColorMatrix in="SourceAlpha" type="matrix" values="0 0 0 0 0 0 0 0 0 0 0 0 0 0 0 0 0 0 127 0" result="hardAlpha"/>
<feOffset dy="4"/>
<feGaussianBlur stdDeviation="4"/>
<feComposite in2="hardAlpha" operator="arithmetic" k2="-1" k3="1"/>
<feColorMatrix type="matrix" values="0 0 0 0 0 0 0 0 0 0 0 0 0 0 0 0 0 0 0.5 0"/>
<feBlend mode="normal" in2="shape" result="effect1_innerShadow_389_15"/>
</filter>
<filter id="filter1_i_389_15" x="22" y="33" width="20" height="20" filterUnits="userSpaceOnUse" color-interpolation-filters="sRGB">
<feFlood flood-opacity="0" result="BackgroundImageFix"/>
<feBlend mode="normal" in="SourceGraphic" in2="BackgroundImageFix" result="shape"/>
<feColorMatrix in="SourceAlpha" type="matrix" values="0 0 0 0 0 0 0 0 0 0 0 0 0 0 0 0 0 0 127 0" result="hardAlpha"/>
<feOffset dx="4" dy="-4"/>
<feGaussianBlur stdDeviation="2"/>
<feComposite in2="hardAlpha" operator="arithmetic" k2="-1" k3="1"/>
<feColorMatrix type="matrix" values="0 0 0 0 0 0 0 0 0 0 0 0 0 0 0 0 0 0 0.5 0"/>
<feBlend mode="normal" in2="shape" result="effect1_innerShadow_389_15"/>
</filter>
<radialGradient id="paint0_radial_389_15" cx="0" cy="0" r="1" gradientUnits="userSpaceOnUse" gradientTransform="translate(26.8889 47.6667) rotate(-42.2737) scale(13.2143)">
<stop offset="0.254695" stop-color="#FFC52F"/>
<stop offset="0.790625" stop-color="white"/>
</radialGradient>
</defs>
</svg>