<svg width="96" height="96" viewBox="0 0 96 96" fill="none" xmlns="http://www.w3.org/2000/svg">
<path fill-rule="evenodd" clip-rule="evenodd" d="M10.0294 26.7865C5.52857 31.2874 3 37.3919 3 43.7571V74C3 84.4934 11.5066 93 22 93H74C84.4934 93 93 84.4934 93 74V22C93 11.5066 84.4934 3 74 3H43.7571C37.3919 3 31.2874 5.52856 26.7865 10.0294L10.0294 26.7865Z" fill="url(#paint0_radial_301_13)"/>
<path d="M6 74V43.7571H0V74H6ZM22 90C13.1634 90 6 82.8366 6 74H0C0 86.1503 9.84974 96 22 96V90ZM74 90H22V96H74V90ZM90 74C90 82.8366 82.8366 90 74 90V96C86.1503 96 96 86.1503 96 74H90ZM90 22V74H96V22H90ZM74 6C82.8366 6 90 13.1634 90 22H96C96 9.84974 86.1503 0 74 0V6ZM43.7571 6H74V0H43.7571V6ZM24.6652 7.90812L7.90812 24.6652L12.1508 28.9079L28.9079 12.1508L24.6652 7.90812ZM43.7571 0C36.5963 0 29.7287 2.84463 24.6652 7.90812L28.9079 12.1508C32.8461 8.21249 38.1876 6 43.7571 6V0ZM6 43.7571C6 38.1876 8.2125 32.8461 12.1508 28.9079L7.90812 24.6652C2.84464 29.7287 0 36.5963 0 43.7571H6Z" fill="#00007A"/>
<rect x="14" y="34" width="16" height="48" rx="8" fill="white" stroke="#00007A" stroke-width="4"/>
<rect x="66" y="14" width="16" height="68" rx="8" fill="white" stroke="#00007A" stroke-width="4"/>
<rect x="40" y="50" width="16" height="32" rx="8" fill="white" stroke="#00007A" stroke-width="4"/>
<defs>
<radialGradient id="paint0_radial_301_13" cx="0" cy="0" r="1" gradientUnits="userSpaceOnUse" gradientTransform="translate(7.45055 90.033) rotate(-46.2505) scale(112.869)">
<stop stop-color="#0000A0"/>
<stop offset="0.461804" stop-color="#1681FF"/>
<stop offset="1" stop-color="white"/>
</radialGradient>
</defs>
</svg>