<svg width="106" height="97" viewBox="0 0 106 97" fill="none" xmlns="http://www.w3.org/2000/svg">
<path fill-rule="evenodd" clip-rule="evenodd" d="M11.201 25.9574C5.95 31.2084 3 38.3303 3 45.7564V76C3 85.9411 11.0589 94 21 94H85C94.9411 94 103 85.9411 103 76V21C103 11.0589 94.9411 3 85 3H45.7564C38.3303 3 31.2084 5.94999 25.9574 11.201L11.201 25.9574Z" fill="url(#paint0_radial_301_13)"/>
<path d="M6 76V45.7564H0V76H6ZM21 91C12.7157 91 6 84.2843 6 76H0C0 87.598 9.40202 97 21 97V91ZM85 91H21V97H85V91ZM100 76C100 84.2843 93.2843 91 85 91V97C96.598 97 106 87.598 106 76H100ZM100 21V76H106V21H100ZM85 6C93.2843 6 100 12.7157 100 21H106C106 9.40202 96.598 0 85 0V6ZM45.7564 6H85V0H45.7564V6ZM23.8361 9.07969L9.0797 23.836L13.3223 28.0787L28.0787 13.3223L23.8361 9.07969ZM45.7564 0C37.5347 0 29.6497 3.26606 23.8361 9.07969L28.0787 13.3223C32.7671 8.63392 39.126 6 45.7564 6V0ZM6 45.7564C6 39.1259 8.63393 32.7671 13.3223 28.0787L9.0797 23.836C3.26607 29.6497 0 37.5346 0 45.7564H6Z" fill="#002174"/>
<rect x="15" y="36" width="20" height="46" rx="7" fill="url(#paint1_linear_301_13)" stroke="#00246B" stroke-width="4"/>
<rect x="71" y="15" width="20" height="67" rx="7" fill="url(#paint2_linear_301_13)" stroke="#00246B" stroke-width="4"/>
<rect x="43" y="54" width="20" height="28" rx="7" fill="url(#paint3_linear_301_13)" stroke="#00246B" stroke-width="4"/>
<defs>
<radialGradient id="paint0_radial_301_13" cx="0" cy="0" r="1" gradientUnits="userSpaceOnUse" gradientTransform="translate(7.5 91) rotate(-45.4465) scale(136.122)">
<stop offset="0.0303625" stop-color="#002DA0"/>
<stop offset="0.539768" stop-color="#499DFF"/>
<stop offset="0.954041" stop-color="white"/>
</radialGradient>
<linearGradient id="paint1_linear_301_13" x1="37" y1="34" x2="15.2326" y2="84.9538" gradientUnits="userSpaceOnUse">
<stop offset="0.163787" stop-color="white"/>
<stop offset="1" stop-color="#0075FF"/>
</linearGradient>
<linearGradient id="paint2_linear_301_13" x1="93" y1="13" x2="55.0597" y2="75.5435" gradientUnits="userSpaceOnUse">
<stop offset="0.163787" stop-color="white"/>
<stop offset="1" stop-color="#0075FF"/>
</linearGradient>
<linearGradient id="paint3_linear_301_13" x1="65" y1="52" x2="55.1902" y2="87.8797" gradientUnits="userSpaceOnUse">
<stop offset="0.163787" stop-color="white"/>
<stop offset="1" stop-color="#0075FF"/>
</linearGradient>
</defs>
</svg>