<svg width="90" height="90" viewBox="0 0 90 90" fill="none" xmlns="http://www.w3.org/2000/svg">
<path fill-rule="evenodd" clip-rule="evenodd" d="M3 45C3 36.206 4.90705 27.9422 8.25568 20.7628C14.5038 7.36685 30.2186 3 45 3V3C59.7814 3 75.4962 7.36685 81.7443 20.7628C85.0929 27.9422 87 36.206 87 45C87 53.794 85.0929 62.0578 81.7443 69.2372C75.4962 82.6331 59.7814 87 45 87V87C30.2186 87 14.5038 82.6332 8.25568 69.2372C4.90705 62.0578 3 53.794 3 45Z" fill="url(#paint0_radial_301_25)"/>
<path d="M81.7443 20.7628L79.0255 22.0309L81.7443 20.7628ZM5.53688 19.4947C2.0008 27.0759 0 35.7731 0 45H6C6 36.6388 7.81331 28.8084 10.9745 22.0309L5.53688 19.4947ZM90 45C90 35.7731 87.9992 27.076 84.4631 19.4947L79.0255 22.0309C82.1867 28.8084 84 36.6388 84 45H90ZM84.4631 70.5053C87.9992 62.924 90 54.2269 90 45H84C84 53.3612 82.1867 61.1916 79.0255 67.9691L84.4631 70.5053ZM0 45C0 54.2269 2.0008 62.9241 5.53688 70.5053L10.9745 67.9691C7.81331 61.1916 6 53.3612 6 45H0ZM79.0255 67.9691C73.561 79.6849 59.5134 84 45 84V90C60.0494 90 77.4313 85.5814 84.4631 70.5053L79.0255 67.9691ZM45 6C59.5134 6 73.561 10.3151 79.0255 22.0309L84.4631 19.4947C77.4313 4.41856 60.0494 0 45 0V6ZM45 84C30.4866 84 16.439 79.6849 10.9745 67.9691L5.53688 70.5053C12.5687 85.5814 29.9506 90 45 90V84ZM10.9745 22.0309C16.439 10.3151 30.4866 6 45 6V0C29.9506 0 12.5687 4.41856 5.53688 19.4947L10.9745 22.0309Z" fill="#3D007A"/>
<rect x="38" y="59" width="14" height="14" rx="7" fill="white" stroke="#3D007A" stroke-width="4"/>
<path d="M33.5875 37.8747C30.6258 38.3612 27.7398 36.3087 28.2087 33.3441C28.5327 31.2961 29.2309 29.3094 30.2845 27.4881C32.2537 24.0835 35.3426 21.4672 39.0247 20.0847C42.7067 18.7023 46.7542 18.6394 50.4775 19.9066C54.2008 21.1739 57.3695 23.6929 59.4437 27.0346C61.5179 30.3762 62.3693 34.3336 61.8528 38.2326C61.3362 42.1316 59.4838 45.7308 56.611 48.4171C53.7382 51.1034 50.0229 52.7104 46.0981 52.9645C43.9984 53.1004 41.9082 52.8446 39.9291 52.2261C37.0643 51.3308 36.5055 47.8338 38.2557 45.3955L38.9679 44.4034C40.3248 42.513 43.074 42.2684 45.396 42.1181V42.1181C46.8115 42.0265 48.1514 41.4469 49.1874 40.4782C50.2235 39.5094 50.8916 38.2113 51.0778 36.8052C51.2641 35.399 50.9571 33.9718 50.209 32.7667C49.461 31.5615 48.3182 30.6531 46.9754 30.196C45.6327 29.739 44.1729 29.7617 42.845 30.2603C41.5171 30.7588 40.4031 31.7024 39.6929 32.9302V32.9302C38.5278 34.9444 37.0888 37.2996 34.7926 37.6767L33.5875 37.8747Z" fill="white" stroke="#3D007A" stroke-width="4"/>
<defs>
<radialGradient id="paint0_radial_301_25" cx="0" cy="0" r="1" gradientUnits="userSpaceOnUse" gradientTransform="translate(3 78.5) rotate(-45.2083) scale(97.2278 107.48)">
<stop offset="0.112832" stop-color="#46008D"/>
<stop offset="0.541557" stop-color="#A851FF"/>
<stop offset="1" stop-color="white"/>
</radialGradient>
</defs>
</svg>