<svg width="106" height="90" viewBox="0 0 106 90" fill="none" xmlns="http://www.w3.org/2000/svg">
<path fill-rule="evenodd" clip-rule="evenodd" d="M3 45C3 31.2118 8.58108 18.7272 17.6074 9.68196C22.512 4.76705 29.554 3 36.4975 3H69.5025C76.446 3 83.488 4.76705 88.3926 9.68195C97.4189 18.7272 103 31.2118 103 45C103 58.7882 97.4189 71.2728 88.3926 80.318C83.488 85.233 76.446 87 69.5025 87H36.4975C29.554 87 22.512 85.233 17.6074 80.318C8.58108 71.2728 3 58.7882 3 45Z" fill="url(#paint0_linear_301_25)"/>
<path d="M88.3926 9.68195L86.269 11.801L88.3926 9.68195ZM17.6074 80.318L15.4839 82.4371L17.6074 80.318ZM17.6074 9.68196L19.7309 11.8011L17.6074 9.68196ZM15.4839 7.56286C5.91922 17.1476 0 30.3854 0 45H6C6 32.0383 11.2429 20.3069 19.7309 11.8011L15.4839 7.56286ZM69.5025 0H36.4975V6H69.5025V0ZM106 45C106 30.3854 100.081 17.1476 90.5161 7.56285L86.269 11.801C94.7571 20.3069 100 32.0383 100 45H106ZM90.5161 82.4371C100.081 72.8524 106 59.6146 106 45H100C100 57.9617 94.7571 69.6931 86.2691 78.1989L90.5161 82.4371ZM36.4975 90H69.5025V84H36.4975V90ZM0 45C0 59.6146 5.91922 72.8524 15.4839 82.4371L19.731 78.199C11.2429 69.6931 6 57.9617 6 45H0ZM86.2691 78.1989C82.1438 82.3329 76.0197 84 69.5025 84V90C76.8722 90 84.8322 88.133 90.5161 82.4371L86.2691 78.1989ZM69.5025 6C76.0197 6 82.1438 7.66713 86.269 11.801L90.5161 7.56285C84.8322 1.86696 76.8722 0 69.5025 0V6ZM36.4975 84C29.9803 84 23.8562 82.3329 19.731 78.199L15.4839 82.4371C21.1678 88.133 29.1278 90 36.4975 90V84ZM19.7309 11.8011C23.8562 7.66714 29.9803 6 36.4975 6V0C29.1278 0 21.1678 1.86696 15.4839 7.56286L19.7309 11.8011Z" fill="#330066"/>
<rect x="27" y="17" width="16" height="34" rx="8" fill="url(#paint1_linear_301_25)" stroke="#330066" stroke-width="4"/>
<rect x="27" y="57" width="16" height="16" rx="8" fill="url(#paint2_linear_301_25)" stroke="#330066" stroke-width="4"/>
<rect x="59" y="57" width="16" height="16" rx="8" fill="url(#paint3_linear_301_25)" stroke="#330066" stroke-width="4"/>
<path d="M55 34C52.2386 34 49.9295 31.7145 50.73 29.0717C51.3198 27.1248 52.2581 25.2865 53.513 23.6511C55.7912 20.6821 58.9853 18.5478 62.6001 17.5793C66.2148 16.6107 70.0482 16.8619 73.5056 18.294C76.963 19.7262 79.8513 22.2591 81.7224 25.5C83.5936 28.7409 84.343 32.5087 83.8546 36.2189C83.3661 39.9292 81.667 43.3746 79.0208 46.0208C76.3746 48.667 72.9292 50.3661 69.2189 50.8546C67.1752 51.1236 65.114 51.0171 63.1331 50.5544C60.444 49.9262 59.6193 46.7838 61 44.3923L63.7994 39.5436C64.4987 38.3324 66.1185 38.0184 67.505 37.8359V37.8359C68.3494 37.7247 69.1335 37.338 69.7358 36.7358C70.338 36.1335 70.7247 35.3494 70.8359 34.505C70.947 33.6606 70.7765 32.8031 70.3506 32.0655C69.9248 31.3279 69.2674 30.7515 68.4806 30.4255C67.6937 30.0996 66.8213 30.0424 65.9986 30.2629C65.176 30.4833 64.449 30.969 63.9305 31.6447V31.6447C63.0792 32.7542 61.9973 34 60.5989 34L55 34Z" fill="url(#paint4_linear_301_25)" stroke="#330066" stroke-width="4"/>
<defs>
<linearGradient id="paint0_linear_301_25" x1="3" y1="87" x2="84.1359" y2="8.00415" gradientUnits="userSpaceOnUse">
<stop offset="0.112832" stop-color="#46008D"/>
<stop offset="0.539933" stop-color="#A851FF"/>
<stop offset="1" stop-color="white"/>
</linearGradient>
<linearGradient id="paint1_linear_301_25" x1="35" y1="17" x2="35" y2="51" gradientUnits="userSpaceOnUse">
<stop stop-color="white"/>
<stop offset="1" stop-color="#A851FF"/>
</linearGradient>
<linearGradient id="paint2_linear_301_25" x1="35" y1="57" x2="35" y2="73" gradientUnits="userSpaceOnUse">
<stop stop-color="white"/>
<stop offset="1" stop-color="#A851FF"/>
</linearGradient>
<linearGradient id="paint3_linear_301_25" x1="67" y1="57" x2="67" y2="73" gradientUnits="userSpaceOnUse">
<stop stop-color="white"/>
<stop offset="1" stop-color="#A851FF"/>
</linearGradient>
<linearGradient id="paint4_linear_301_25" x1="67" y1="17" x2="67" y2="51" gradientUnits="userSpaceOnUse">
<stop stop-color="white"/>
<stop offset="1" stop-color="#A851FF"/>
</linearGradient>
</defs>
</svg>