<svg width="96" height="86" viewBox="0 0 96 86" fill="none" xmlns="http://www.w3.org/2000/svg">
<path d="M36.1419 76.2892L4.84571 23.0511C-0.350514 14.2118 6.08923 2.99999 16.7039 2.99999L79.2962 3.00001C89.9109 3.00001 96.3506 14.2118 91.1544 23.0511L59.8582 76.2892C54.5982 85.2369 41.4018 85.2369 36.1419 76.2892Z" fill="url(#paint0_radial_224_17)" stroke="#005C2A" stroke-width="6"/>
<path fill-rule="evenodd" clip-rule="evenodd" d="M40.3551 29.2245C48.5 46.1064 48.5 46.1064 56.287 29.2244L57.4714 27.2097C63.0369 17.742 79.1122 15.6897 73.5466 25.1573V25.1573L56.287 54.5177C52.7466 60.5404 43.8955 60.5404 40.3551 54.5177L23.0955 25.1573V25.1573C17.5299 15.6897 33.6051 17.742 39.1707 27.2097L40.3551 29.2244L40.3551 29.2245Z" fill="white"/>
<path d="M56.287 29.2244L54.5629 28.2109L54.5125 28.2965L54.4709 28.3867L56.287 29.2244ZM40.3551 29.2245L38.5521 30.09L38.5538 30.0936L40.3551 29.2245ZM56.287 54.5177L54.5629 53.5042L54.5629 53.5042L56.287 54.5177ZM40.3551 54.5177L38.6309 55.5313L38.6309 55.5313L40.3551 54.5177ZM40.3551 29.2244L42.1581 28.3589L42.1218 28.2832L42.0792 28.2108L40.3551 29.2244ZM23.0955 25.1573L21.3713 26.1709L21.3713 26.1709L23.0955 25.1573ZM57.4714 27.2097L55.7472 26.1961L57.4714 27.2097ZM73.5466 25.1573L75.2708 26.1709L75.2708 26.1709L73.5466 25.1573ZM54.4709 28.3867C52.5051 32.6485 51.0912 35.7086 49.9272 37.7181C49.3435 38.7259 48.8936 39.3415 48.5518 39.686C48.2052 40.0354 48.1919 39.8859 48.4553 39.8859C48.712 39.8859 48.6899 40.0291 48.327 39.671C47.9721 39.3208 47.506 38.6999 46.9002 37.691C45.692 35.6788 44.212 32.6161 42.1564 28.3554L38.5538 30.0936C40.5707 34.2739 42.145 37.5418 43.4709 39.7501C44.1322 40.8514 44.803 41.8132 45.5173 42.5181C46.2236 43.2151 47.2028 43.8859 48.4553 43.8859C49.7143 43.8859 50.6913 43.2089 51.3914 42.5031C52.0965 41.7925 52.75 40.8254 53.3885 39.723C54.6692 37.512 56.1754 34.2413 58.1031 30.0621L54.4709 28.3867ZM55.7472 26.1961L54.5629 28.2109L58.0112 30.238L59.1955 28.2232L55.7472 26.1961ZM71.8225 24.1438L54.5629 53.5042L58.0112 55.5313L75.2708 26.1709L71.8225 24.1438ZM54.5629 53.5042C51.7956 58.2115 44.8465 58.2115 42.0792 53.5042L38.6309 55.5313C42.9445 62.8692 53.6975 62.8692 58.0112 55.5313L54.5629 53.5042ZM42.0792 53.5042L24.8196 24.1438L21.3713 26.1709L38.6309 55.5313L42.0792 53.5042ZM42.0792 28.2108L40.8949 26.1961L37.4465 28.2232L38.6309 30.2379L42.0792 28.2108ZM42.1582 28.3591L42.1581 28.3589L38.552 30.0899L38.5521 30.09L42.1582 28.3591ZM24.8196 24.1438C24.2096 23.1061 23.9941 22.3855 23.9503 21.9422C23.9109 21.5435 24.0098 21.4369 24.0241 21.4194C24.1438 21.2733 24.8511 20.8299 26.7056 21.0667C30.1855 21.5109 35.0139 24.0851 37.4465 28.2232L40.8949 26.1961C37.7619 20.8666 31.77 17.6808 27.2122 17.0989C25.0479 16.8226 22.4321 17.0496 20.9291 18.8855C19.2724 20.9091 19.8801 23.6341 21.3713 26.1709L24.8196 24.1438ZM59.1955 28.2232C61.6282 24.0851 66.4566 21.511 69.9365 21.0667C71.791 20.8299 72.4983 21.2733 72.618 21.4194C72.6323 21.4369 72.7312 21.5436 72.6918 21.9422C72.6479 22.3855 72.4325 23.1061 71.8225 24.1438L75.2708 26.1709C76.762 23.6341 77.3697 20.9091 75.713 18.8855C74.2099 17.0496 71.5942 16.8226 69.4299 17.0989C64.8721 17.6808 58.8802 20.8666 55.7472 26.1961L59.1955 28.2232Z" fill="#005C2A"/>
<defs>
<radialGradient id="paint0_radial_224_17" cx="0" cy="0" r="1" gradientUnits="userSpaceOnUse" gradientTransform="translate(28.5 75) rotate(-56.0463) scale(90.4171 100.931)">
<stop stop-color="#005326"/>
<stop offset="0.533593" stop-color="#36FF92"/>
<stop offset="1" stop-color="white"/>
</radialGradient>
</defs>
</svg>