<svg width="96" height="86" viewBox="0 0 96 86" fill="none" xmlns="http://www.w3.org/2000/svg">
<path d="M36.1419 76.2892L4.84571 23.0511C-0.350514 14.2118 6.08923 2.99999 16.7039 2.99999L79.2962 3.00001C89.9109 3.00001 96.3506 14.2118 91.1544 23.0511L59.8582 76.2892C54.5982 85.2369 41.4018 85.2369 36.1419 76.2892Z" fill="url(#paint0_linear_224_17)" stroke="#004921" stroke-width="6"/>
<path fill-rule="evenodd" clip-rule="evenodd" d="M40.3551 30.6181C43.8955 36.6407 52.7466 36.6407 56.287 30.6181L58.7601 26.4111C63.9706 17.5474 78.7571 16.108 73.5466 24.9717V24.9717L56.287 54.3321C52.7466 60.3547 43.8955 60.3547 40.3551 54.3321L23.0955 24.9717V24.9717C17.885 16.108 32.6714 17.5474 37.882 26.4111L40.3551 30.6181Z" fill="url(#paint1_linear_224_17)"/>
<path d="M56.287 30.6181L54.5628 29.6045L54.5628 29.6045L56.287 30.6181ZM40.3551 30.6181L42.0792 29.6045L42.0792 29.6045L40.3551 30.6181ZM56.287 54.3321L54.5628 53.3185L54.5628 53.3185L56.287 54.3321ZM40.3551 54.3321L42.0792 53.3185L42.0792 53.3185L40.3551 54.3321ZM23.0955 24.9717L21.3713 25.9852L21.3713 25.9852L23.0955 24.9717ZM58.7601 26.4111L57.0359 25.3975L58.7601 26.4111ZM73.5466 24.9717L75.2707 25.9852L75.2708 25.9852L73.5466 24.9717ZM54.5628 29.6045C51.7956 34.3119 44.8465 34.3119 42.0792 29.6045L38.6309 31.6316C42.9445 38.9695 53.6975 38.9695 58.0111 31.6316L54.5628 29.6045ZM57.0359 25.3975L54.5628 29.6045L58.0111 31.6316L60.4842 27.4246L57.0359 25.3975ZM71.8224 23.9581L54.5628 53.3185L58.0111 55.3456L75.2707 25.9852L71.8224 23.9581ZM54.5628 53.3185C51.7956 58.0259 44.8465 58.0259 42.0792 53.3185L38.6309 55.3456C42.9445 62.6835 53.6975 62.6835 58.0111 55.3456L54.5628 53.3185ZM42.0792 53.3185L24.8196 23.9581L21.3713 25.9852L38.6309 55.3456L42.0792 53.3185ZM42.0792 29.6045L39.6061 25.3975L36.1578 27.4246L38.6309 31.6316L42.0792 29.6045ZM24.8196 23.9581C24.2556 22.9986 24.054 22.3283 24.0099 21.9137C23.9699 21.5371 24.0601 21.4305 24.0709 21.4162C24.1532 21.3072 24.7303 20.8729 26.3871 21.0342C29.5088 21.3381 33.9073 23.5963 36.1578 27.4246L39.6061 25.3975C36.6461 20.3622 31.0462 17.4689 26.7746 17.053C24.7347 16.8545 22.2665 17.1684 20.879 19.0054C19.3802 20.9898 19.956 23.5776 21.3713 25.9852L24.8196 23.9581ZM60.4842 27.4246C62.7347 23.5964 67.1333 21.3381 70.255 21.0342C71.9118 20.873 72.4889 21.3072 72.5712 21.4162C72.582 21.4305 72.6722 21.5371 72.6322 21.9137C72.5881 22.3283 72.3865 22.9987 71.8224 23.9581L75.2708 25.9852C76.6861 23.5776 77.2619 20.9898 75.7631 19.0054C74.3755 17.1684 71.9073 16.8545 69.8675 17.0531C65.5959 17.4689 59.996 20.3622 57.0359 25.3975L60.4842 27.4246Z" fill="#004921"/>
<defs>
<linearGradient id="paint0_linear_224_17" x1="32.5" y1="86" x2="91" y2="1.5" gradientUnits="userSpaceOnUse">
<stop stop-color="#005326"/>
<stop offset="0.438914" stop-color="#36FF92"/>
<stop offset="1" stop-color="white"/>
</linearGradient>
<linearGradient id="paint1_linear_224_17" x1="37" y1="61" x2="66.5" y2="23.5" gradientUnits="userSpaceOnUse">
<stop stop-color="#36FF92"/>
<stop offset="1" stop-color="white"/>
</linearGradient>
</defs>
</svg>
